<?xml version="1.0" encoding="UTF-8" standalone="no"?>
<!-- Created with Inkscape (http://www.inkscape.org/) -->

<svg
   xmlns:dc="http://purl.org/dc/elements/1.1/"
   xmlns:cc="http://creativecommons.org/ns#"
   xmlns:rdf="http://www.w3.org/1999/02/22-rdf-syntax-ns#"
   xmlns:svg="http://www.w3.org/2000/svg"
   xmlns="http://www.w3.org/2000/svg"
   xmlns:xlink="http://www.w3.org/1999/xlink"
   xmlns:sodipodi="http://sodipodi.sourceforge.net/DTD/sodipodi-0.dtd"
   xmlns:inkscape="http://www.inkscape.org/namespaces/inkscape"
   width="137.58333mm"
   height="103.18752mm"
   viewBox="0 0 487.49998 365.62505"
   id="svg12873"
   version="1.1"
   inkscape:version="0.91 r13725"
   sodipodi:docname="gps_path.svg">
  <defs
     id="defs12875">
    <clipPath
       clipPathUnits="userSpaceOnUse"
       id="clipPath4155">
      <rect
         ry="15.868258"
         rx="15.868258"
         style="fill:#000000;fill-opacity:1;stroke:none;stroke-width:9.46482849;stroke-linecap:round;stroke-linejoin:round;stroke-miterlimit:4;stroke-dasharray:none;stroke-dashoffset:0;stroke-opacity:1"
         id="rect4157"
         width="1547.1552"
         height="1160.3665"
         x="-999.328"
         y="100.23735" />
    </clipPath>
  </defs>
  <sodipodi:namedview
     id="base"
     pagecolor="#ffffff"
     bordercolor="#666666"
     borderopacity="1.0"
     inkscape:pageopacity="0.0"
     inkscape:pageshadow="2"
     inkscape:zoom="3.959798"
     inkscape:cx="307.72866"
     inkscape:cy="202.84033"
     inkscape:document-units="px"
     inkscape:current-layer="layer1"
     showgrid="false"
     fit-margin-top="0"
     fit-margin-left="0"
     fit-margin-right="0"
     fit-margin-bottom="0"
     inkscape:window-width="3840"
     inkscape:window-height="2160"
     inkscape:window-x="3840"
     inkscape:window-y="0"
     inkscape:window-maximized="0"
     inkscape:snap-bbox="true"
     inkscape:bbox-paths="true"
     inkscape:bbox-nodes="true"
     inkscape:snap-bbox-edge-midpoints="true"
     inkscape:snap-nodes="true"
     inkscape:snap-page="true"
     inkscape:object-paths="true"
     inkscape:snap-intersection-paths="true"
     inkscape:object-nodes="true"
     inkscape:snap-smooth-nodes="true"
     inkscape:snap-midpoints="true" />
  <metadata
     id="metadata12878">
    <rdf:RDF>
      <cc:Work
         rdf:about="">
        <dc:format>image/svg+xml</dc:format>
        <dc:type
           rdf:resource="http://purl.org/dc/dcmitype/StillImage" />
        <dc:title></dc:title>
      </cc:Work>
    </rdf:RDF>
  </metadata>
  <g
     inkscape:label="Layer 1"
     inkscape:groupmode="layer"
     id="layer1"
     transform="translate(-84.821426,-489.54968)">
    <image
       sodipodi:absref="/home/mark/repos/paper_ammp/imgs/gps_path/sattelite_2.png"
       xlink:href="sattelite_2.png"
       transform="matrix(0.31509445,0,0,0.31509445,399.70414,457.96545)"
       clip-path="url(#clipPath4155)"
       width="2720"
       height="2040"
       preserveAspectRatio="none"
       id="image12428"
       x="-1648.5714"
       y="-276.20923" />
    <rect
       ry="5"
       rx="5"
       style="fill:#ffffff;fill-opacity:0.47342996;stroke:none;stroke-width:9.46482849;stroke-linecap:round;stroke-linejoin:round;stroke-miterlimit:4;stroke-dasharray:none;stroke-dashoffset:0;stroke-opacity:1"
       id="rect12539-2"
       width="487.5"
       height="365.62503"
       x="84.821449"
       y="489.54968"
       clip-path="none" />
    <g
       id="g12556"
       transform="matrix(0.31509445,0,0,0.31509445,399.70414,457.96545)">
      <path
         sodipodi:nodetypes="ccsccsccccccccc"
         inkscape:connector-curvature="0"
         id="path12513-1"
         d="m 20.36585,1114.3846 c 15.59591,-7.9118 12.66807,-3.7836 37.51524,-16.1152 15.37473,-26.0759 43.68133,-26.9906 49.69917,-58.3918 3.99028,-20.8214 4.18944,-55.58051 3.6433,-65.37641 -0.87105,-11.8658 -12.32879,-33.5621 -29.90628,-36.5388 -46.1754,-13.629 -75.4999593,-1.8705 -121.790779,3.2836 -26.36388,2.9354 -71.219381,-0.6244 -98.169941,-0.2531 -30.74238,-0.6229 -40.32483,-11.8257 -51.51778,-22.2234 l -52.27539,-53.28551 c -12.31324,-13.49566 -28.51418,-19.92279 -48.23479,-19.95051 -24.84494,1.24795 -24.96645,-11.70455 -28.28554,-21.94544 l -43.34872,-255.57282 -27.14285,-183.21428 -16.42857,-99.28572 -20.15149,-132.17002"
         style="fill:none;fill-rule:evenodd;stroke:#000000;stroke-width:7;stroke-linecap:butt;stroke-linejoin:miter;stroke-miterlimit:4;stroke-dasharray:14, 7;stroke-dashoffset:0;stroke-opacity:1" />
      <path
         inkscape:connector-curvature="0"
         id="path12470-2"
         d="m 50.969842,1199.3345 c -0.03943,-4.5213 1.247288,-13.2538 2.299672,-15.6053 0.61904,-1.3834 0.926102,-3.8664 0.682438,-5.5175 -2.47033,-16.7369 -4.50113,-32.1534 -4.314688,-32.7543 0.126399,-0.4073 0.777657,-0.5707 1.447122,-0.3629 1.445983,0.4486 4.881018,19.8443 5.926351,33.4617 0.505587,6.5871 0.03089,11.5441 -1.495125,15.6121 -2.311346,6.1612 -4.515293,8.6659 -4.545875,5.1662 z M 49.87309,1141.653 c -0.47766,-1.2193 -0.964849,-4.664 -1.083065,-7.6548 -0.118006,-2.9908 -0.684553,-5.5837 -1.258815,-5.7619 -0.574157,-0.1781 0.32422,-4.7335 1.996469,-10.123 2.432366,-7.8393 3.432386,-9.6775 5.000204,-9.191 1.543073,0.4788 1.39388,2.4321 -0.701399,9.185 -1.805301,5.8183 -2.415171,10.9031 -1.896262,15.8088 0.78743,7.443 -0.409265,11.944 -2.057132,7.7369 z m 6.795478,-38.7012 c -0.347441,-0.6603 -0.30125,-2.2658 0.102725,-3.5677 0.638376,-2.0575 1.105358,-2.0366 3.568111,0.1603 1.558438,1.3902 2.426253,3.0958 1.928046,3.7902 -1.096964,1.5294 -4.722752,1.2815 -5.598882,-0.3828 z m -45.896329,-23.5549 c -2.4678634,-3.5811 -2.4610859,-4.0052 0.08483,-5.3449 2.417274,-1.2721 2.840313,-1.1652 3.361147,0.85 0.469225,1.8162 1.300383,1.4665 3.918536,-1.6489 1.827648,-2.1746 3.768275,-3.6547 4.312798,-3.2888 0.544415,0.3659 1.18522,0.035 1.42404,-0.7342 0.699427,-2.2542 12.795767,-5.9542 16.107131,-4.9268 4.303452,1.3353 3.294223,2.7475 -4.030342,5.64 -3.514137,1.3876 -9.254058,5.1931 -12.755487,8.4568 -3.501596,3.2635 -7.125906,5.6982 -8.054141,5.4102 -0.928235,-0.288 -2.894117,-2.274 -4.368516,-4.4134 z m 59.695094,2.005 c -0.3304,-0.6278 -0.335239,-1.9973 -0.01064,-3.0435 0.478609,-1.5425 0.865218,-1.4797 2.045348,0.3326 0.800283,1.229 1.295087,2.7506 1.099403,3.3812 -0.419786,1.353 -2.278386,0.9553 -3.13411,-0.6703 z M -170.94705,939.25014 c -2.66238,-3.674 -7.12196,-10.75269 -9.91027,-15.73045 -10.01392,-17.87694 -24.34434,-31.81929 -36.7981,-35.80152 -2.96466,-0.94792 -3.78873,-1.99692 -3.61727,-4.60404 0.12226,-1.85697 -0.61812,-4.34262 -1.64546,-5.52372 -1.51653,-1.74348 -2.54564,-1.68414 -5.47093,0.31543 l -3.60306,2.46287 -2.76627,-5.97678 c -1.52146,-3.28723 -3.68968,-6.68491 -4.81838,-7.55046 -1.44382,-1.10724 -1.57491,-2.48961 -0.44238,-4.66376 0.88537,-1.6995 1.16807,-3.59786 0.62666,-4.21905 -1.72281,-1.97883 -0.31184,-3.61636 2.39318,-2.77705 1.43717,0.44592 2.37122,1.59022 2.07564,2.54285 -0.6856,2.20963 3.16858,9.07783 5.59342,9.96771 1.01532,0.37262 3.2604,2.35122 4.98904,4.39689 1.72863,2.04567 3.91393,4.35029 4.85641,5.12142 4.48331,3.66849 9.56344,8.68865 9.96622,9.84884 0.24618,0.7088 1.02524,1.3142 1.73112,1.34528 4.73996,0.20888 19.20199,17.51088 30.19699,36.12678 11.01718,18.65332 13.44622,20.48989 27.32959,20.66368 25.03984,0.31344 39.51059,0.249 43.66523,-0.19441 6.51396,-0.69525 14.883241,0.5036 14.3995,2.06265 -0.353556,1.13948 -3.507119,1.43534 -8.11409,0.76118 -0.75352,-0.11019 -4.66907,0.0461 -8.70102,0.34746 -6.50307,0.48605 -19.77297,0.64262 -41.49671,0.48969 -11.0405,-0.0777 -14.99489,-1.89858 -20.43906,-9.41149 z m -32.26617,-24.4643 c -5.44779,-5.29295 -9.94404,-10.1904 -9.99161,-10.8832 -0.0477,-0.69283 -0.78041,-1.47495 -1.62833,-1.73804 -2.5533,-0.79223 -12.51257,-13.94348 -11.33547,-14.96841 0.96382,-0.83911 4.83634,3.21086 13.52121,14.14054 1.41638,1.78249 5.43454,5.78986 8.92922,8.90526 7.42825,6.62221 15.07978,15.84818 12.3196,14.85471 -1.05019,-0.37804 -6.36693,-5.01793 -11.81462,-10.31086 z M -83.998403,948.34 c 0.451375,-1.45474 1.124278,-1.46258 12.343418,-0.14426 7.416582,0.87151 14.372112,0.47499 37.785143,-2.15406 3.264936,-0.3666 6.259705,-0.67043 6.654986,-0.67521 2.123921,-0.0255 9.824978,-1.33261 10.583713,-1.79639 2.79055,-1.70538 11.4909002,-3.72513 11.9870868,-2.78262 0.7957343,1.5119 -9.6995548,5.89876 -15.2073208,6.35627 -2.446881,0.20323 -4.856763,0.64619 -5.35558,0.98428 -0.498817,0.3381 -3.545925,0.81061 -6.7713,1.05008 -3.225477,0.23943 -9.566603,0.94185 -14.091489,1.56088 -16.217208,2.21863 -38.91594,0.78295 -37.928657,-2.39897 z m 214.664173,35.26716 c -0.48,-1.85823 1.48219,-3.86046 3.24649,-3.31303 1.58974,0.49326 0.50287,4.0328 -1.38898,4.52101 -0.79722,0.20588 -1.63326,-0.33777 -1.85814,-1.20817 z M -309.15898,846.16039 c -0.33042,-0.6277 -0.27704,-2.18448 0.11857,-3.4595 0.98437,-3.17251 -0.81763,-4.88691 -6.82894,-6.49697 -3.58818,-0.96106 -5.50946,-2.31732 -6.48431,-4.5774 -0.76194,-1.76641 -1.93127,-3.07074 -2.59852,-2.89849 -1.43826,0.37147 -3.10309,-7.8371 -2.18773,-10.78721 0.57242,-1.84488 0.90405,-1.73193 3.24507,1.10515 1.97506,2.39356 3.15043,2.93567 4.84576,2.23507 1.69134,-0.69885 2.473,-0.35704 3.1985,1.39863 0.52819,1.27798 2.39974,3.19978 4.15941,4.27079 3.1145,1.89567 9.34365,12.64478 8.64067,14.91041 -0.19307,0.62226 1.81035,1.43593 4.45213,1.80818 6.88196,0.96972 5.31319,4.29941 -2.03137,4.31158 -6.54035,0.0109 -7.69515,-0.2356 -8.52923,-1.82026 z m -5.72348,-14.62746 c 1.94269,-0.12752 2.15221,-0.4927 1.03544,-1.80529 -2.01743,-2.37114 -2.83169,-2.41707 -3.52003,-0.19863 -0.69838,2.25081 -0.74154,2.21582 2.48459,2.00392 z m 63.89446,27.18612 c -1.47785,-1.58439 -4.00334,-3.312 -5.61233,-3.83913 -1.60899,-0.52717 -2.72303,-1.61073 -2.47567,-2.40795 0.29612,-0.95434 2.03379,-0.64116 5.08687,0.91681 2.55036,1.30145 6.09547,2.8525 7.87811,3.44679 3.00506,1.00183 4.62363,3.33849 3.94488,5.69496 -0.47118,1.63343 -5.95181,-0.73456 -8.82186,-3.81148 z m -33.37248,-12.46651 c 0.61617,-1.98585 8.91087,-3.00126 13.32598,-1.63134 2.55299,0.79214 3.77965,1.89653 3.41436,3.07381 -0.35876,1.15626 -1.40831,1.31592 -2.8309,0.43067 -1.24338,-0.77376 -4.35352,-1.03387 -6.91121,-0.57798 -5.32466,0.94907 -7.56587,0.53429 -6.99823,-1.29516 z m 414.61356,128.25114 c 0.57816,-0.80533 1.83509,-1.22102 2.79322,-0.92373 0.95812,0.29728 1.75898,1.35146 1.77972,2.34262 0.0224,1.07203 -1.10921,1.44625 -2.7932,0.92374 -1.68401,-0.52251 -2.40507,-1.47158 -1.77974,-2.34263 z M 4.164238,934.36188 c -0.3296346,-1.27667 8.563579,-3.91614 15.344241,-4.55407 4.219559,-0.39702 5.40467,-0.13079 4.993179,1.12169 -0.574492,1.7515 -19.9279771,5.0175 -20.33742,3.43238 z M -296.60471,839.55196 c 0.22296,-0.7186 0.99328,-1.12413 1.71192,-0.90115 0.71854,0.22294 1.12411,0.99333 0.90114,1.71193 -0.22296,0.7186 -0.99339,1.1241 -1.71192,0.90115 -0.71864,-0.22298 -1.12411,-0.99333 -0.90114,-1.71193 z m 427.35298,127.58562 c 0.33444,-1.0779 1.19598,-1.77741 1.91462,-1.55443 0.71853,0.22295 1.03289,1.28731 0.69844,2.36521 -0.33445,1.07791 -1.19609,1.77737 -1.91462,1.55443 -0.71864,-0.22298 -1.0329,-1.2873 -0.69844,-2.36521 z M -284.54503,837.6149 c 0.42637,-1.37416 5.4432,-2.65848 7.67734,-1.96527 2.56389,0.79552 0.75244,2.62052 -3.08664,3.10935 -4.61265,0.5874 -5.09096,0.46821 -4.5907,-1.14408 z m 42.22911,11.62009 c 0.22297,-0.7186 1.58129,-0.94169 3.01846,-0.49577 1.43718,0.44593 2.43064,1.39873 2.20767,2.11733 -0.22296,0.71861 -1.58128,0.9417 -3.01846,0.49577 -1.43717,-0.44593 -2.43063,-1.39872 -2.20767,-2.11733 z m -28.83437,-13.24371 c 0.22296,-0.7186 0.99328,-1.12413 1.71192,-0.90115 0.71864,0.22298 1.12411,0.99333 0.90114,1.71193 -0.22297,0.71861 -0.99329,1.12414 -1.71193,0.90116 -0.71864,-0.22298 -1.1241,-0.99333 -0.90113,-1.71194 z m 399.80313,124.05064 c 0.22296,-0.7186 0.99339,-1.1241 1.71192,-0.90116 0.71864,0.22298 1.12421,0.99337 0.90125,1.71197 -0.22297,0.71861 -0.9934,1.12411 -1.71204,0.90113 -0.71853,-0.22295 -1.1241,-0.99333 -0.90113,-1.71194 z M -263.80684,835.40514 c 0.22296,-0.71859 0.99339,-1.12411 1.71203,-0.90113 0.71853,0.22295 1.1241,0.99335 0.90113,1.71195 -0.22296,0.71859 -0.99339,1.1241 -1.71192,0.90115 -0.71864,-0.22298 -1.12421,-0.99337 -0.90124,-1.71197 z m 14.39203,3.18548 c 0.12268,-2.7174 1.79753,-2.62477 4.26433,0.23588 0.73363,0.85075 0.82581,1.98917 0.20483,2.52985 -1.93411,1.68389 -4.59552,0.0368 -4.46916,-2.76573 z m 374.46309,114.60355 c 0.22297,-0.71859 0.99329,-1.12413 1.71193,-0.90115 0.71864,0.22298 1.1241,0.99334 0.90114,1.71193 -0.22297,0.7186 -0.99329,1.12414 -1.71193,0.90116 -0.71864,-0.22298 -1.1241,-0.99334 -0.90114,-1.71194 z m -5.06866,-4.43735 c 0.66701,-0.58084 1.47214,-0.97557 1.789,-0.87725 0.31696,0.0983 0.39372,0.76671 0.17075,1.48532 -0.22297,0.71859 -1.0281,1.11333 -1.78899,0.87724 -0.76111,-0.23616 -0.83787,-0.90452 -0.17076,-1.48531 z m -11.2907,-4.71184 c -0.22523,-0.87187 0.34942,-1.7811 1.27673,-2.02059 2.39402,-0.6182 3.16242,1.48448 0.96514,2.6411 -1.22945,0.6472 -1.96725,0.44299 -2.24186,-0.62054 z m 5.81665,1.58101 c 0.22297,-0.7186 0.99329,-1.12413 1.71193,-0.90115 0.71853,0.22295 1.1241,0.99333 0.90113,1.71193 -0.22296,0.7186 -0.99339,1.12411 -1.71192,0.90117 -0.71864,-0.22298 -1.12411,-0.99335 -0.90114,-1.71195 z m -20.747262,-9.3021 c 0.667008,-0.58083 1.766136,-0.88434 2.442312,-0.67454 0.676281,0.20984 1.047041,0.96942 0.824072,1.68803 -0.222966,0.7186 -1.322095,1.02211 -2.442309,0.67453 -1.120424,-0.34764 -1.491185,-1.10723 -0.824075,-1.68802 z m 6.567142,2.15996 c -0.20957,-0.81122 0.28276,-1.64631 1.09397,-1.85577 0.81122,-0.20949 1.64619,0.28278 1.85575,1.09401 0.20946,0.8112 -0.28277,1.64632 -1.09408,1.85575 -0.81121,0.20948 -1.64618,-0.28279 -1.85564,-1.09399 z m 5.19176,1.48858 c -0.22107,-0.85638 0.22054,-1.36391 0.98154,-1.12778 0.761,0.23612 1.20128,1.01728 0.97831,1.73588 -0.22297,0.7186 -0.66459,1.22613 -0.98165,1.12775 -0.31675,-0.0983 -0.75703,-0.87944 -0.9782,-1.73585 z M -322.05166,801.54188 c 0.50252,-1.61959 2.23683,-2.734 4.47253,-2.87381 2.00842,-0.12561 3.83866,-0.83088 4.06714,-1.56726 0.22848,-0.73638 1.29732,-1.06526 2.37517,-0.73082 3.15042,0.97751 1.01588,4.71179 -3.91649,6.8523 -5.58203,2.42242 -8.0849,1.82144 -6.99835,-1.68041 z m 8.91194,-40.81688 c -0.1933,-2.94522 1.9292,-4.48317 4.91061,-3.5581 2.201,0.68292 2.20173,1.12143 0.006,3.58272 -2.81107,3.15143 -4.70883,3.14192 -4.91668,-0.0246 z m 11.3942,-1.54638 c 0.22296,-0.7186 0.99328,-1.12413 1.71192,-0.90115 0.71864,0.22298 1.12411,0.99333 0.90114,1.71193 -0.22296,0.7186 -0.99329,1.12414 -1.71193,0.90116 -0.71864,-0.22297 -1.1241,-0.99334 -0.90113,-1.71194 z m -39.83177,-22.50612 c -0.57453,-1.09158 -0.52357,-2.64612 0.11324,-3.45452 0.63681,-0.80841 0.65175,-2.05237 0.03,-2.76536 -1.66599,-1.91342 -0.25925,-5.15395 1.94091,-4.47129 1.13207,0.35126 1.67726,2.51652 1.34827,5.35463 -0.69817,6.02207 -2.00333,8.05131 -3.4324,5.33654 z m -4.03793,-29.72865 c -1.89883,-2.18101 0.44648,-4.92011 5.43834,-6.35103 4.89765,-1.40404 6.34269,0.31237 2.28465,2.71386 -1.60231,0.94832 -3.1162,2.37815 -3.36419,3.17741 -0.65779,2.11998 -2.72358,2.33787 -4.3588,0.45976 z m 26.01081,-49.07475 c -0.21388,-0.82845 0.44502,-1.58616 1.46534,-1.68347 1.0199,-0.0974 -0.17417,-0.68412 -2.65345,-1.30373 -5.89993,-1.47448 -5.91206,-4.37976 -0.0191,-4.58357 5.46166,-0.18887 8.04257,2.55187 6.13631,6.51619 -1.33175,2.76917 -4.32117,3.40879 -4.92911,1.05458 z m -33.21624,-34.13774 c 0.33782,-1.08879 1.76951,-1.59945 3.22115,-1.14904 3.1153,0.96662 2.84329,3.08169 -0.42363,3.29614 -3.26798,0.2145 -3.47982,0.0519 -2.79752,-2.1471 z m -10.74758,-7.98596 c -0.34395,-2.44562 3.24938,-11.32594 4.57735,-11.31233 3.05447,0.0313 4.72193,4.6102 2.91379,8.00192 -1.72567,3.23746 -7.1634,5.64047 -7.49114,3.31041 z m -25.26019,-101.81462 c -5.9536,-4.27367 -5.03516,-6.17125 1.68623,-3.48487 3.71969,1.48667 5.54643,2.90904 5.19418,4.04431 -0.84014,2.7077 -2.51929,2.57116 -6.88041,-0.55944 z m -0.2578,-50.29503 c 0.35303,-1.13777 1.57284,-1.77983 2.71056,-1.42682 1.13783,0.35304 1.61929,1.26783 1.07016,2.03294 -1.55914,2.17209 -4.49662,1.70116 -3.78072,-0.60612 z m 6.86317,-26.49992 c -0.38862,-2.0149 -0.1581,-4.14114 0.51246,-4.72488 1.72825,-1.50465 1.23107,-5.61319 -0.75384,-6.22907 -0.91722,-0.2846 -2.37538,0.61997 -3.2404,2.01014 -2.62381,4.21643 -4.8067,0.79935 -3.06836,-4.80315 1.46878,-4.73373 1.89008,-5.05352 5.62068,-4.26624 3.31019,0.69855 4.26091,1.76353 5.30536,5.94314 0.69968,2.80059 0.90344,6.58894 0.45276,8.41856 -0.45026,1.82976 -0.71727,4.48624 -0.59202,5.90372 0.35694,4.04116 -3.40896,2.03922 -4.23664,-2.25222 z m -17.46838,-59.21397 c -1.32423,-1.55308 -1.18486,-1.83667 0.97186,-1.97825 1.38477,-0.0909 2.77187,-0.98428 3.08246,-1.9853 0.3106,-1.00101 1.78958,-1.43999 3.28662,-0.97549 1.71262,0.53139 2.25183,1.36265 1.45405,2.24159 -0.69748,0.76831 -1.95029,2.31323 -2.7841,3.43314 -1.67885,2.25523 -3.66827,2.01174 -6.01089,-0.73569 z m -11.23572,-30.65665 c -0.20576,-0.7972 0.33784,-1.6334 1.20827,-1.85814 1.85822,-0.47985 3.86039,1.48222 3.31296,3.24653 -0.49329,1.58982 -4.03276,0.50289 -4.52124,-1.38836 z m -55.50659,-104.83332 c -1.942,-1.56991 -2.23094,-2.5239 -0.96583,-3.18972 2.5063,-1.31938 7.83919,1.43917 7.1398,3.69324 -0.75176,2.42283 -2.75634,2.25934 -6.17397,-0.50352 z m 37.74974,0.49284 c -0.20586,-0.79723 0.33773,-1.63342 1.20817,-1.85816 1.85821,-0.47984 3.86048,1.48224 3.31305,3.24656 -0.49328,1.5898 -4.03285,0.50285 -4.52123,-1.38836 z m 6.62924,-83.88234 c 0.63103,-2.03375 1.67233,-2.44539 4.2012,-1.66074 4.28857,1.33065 2.55062,5.58305 -1.98418,4.85521 -2.32109,-0.37256 -2.85423,-1.14078 -2.21702,-3.19447 z m 9.57942,1.44034 c 0.22297,-0.7186 1.28739,-1.03288 2.36525,-0.69844 1.07796,0.33447 1.77742,1.19605 1.55446,1.91464 -0.22297,0.7186 -1.28729,1.03291 -2.36525,0.69845 -1.07785,-0.33444 -1.77742,-1.19605 -1.55446,-1.91465 z"
         style="fill:#ff0000;stroke:none;stroke-opacity:1" />
      <path
         inkscape:connector-curvature="0"
         id="path12442-6"
         d="m -32.22351,1246.5886 c -0.23101,-0.8951 -0.22377,-1.616 0.0165,-1.602 0.24002,0.014 1.45191,0.1357 2.6927,0.2707 3.1987,0.3477 10.484382,-1.8982 10.942026,-3.3732 0.211394,-0.6813 0.828098,-0.7292 1.3702,-0.1065 1.311574,1.5064 -7.550236,6.4878 -11.492066,6.4602 -1.71008,-0.012 -3.2982,-0.7542 -3.52936,-1.6492 z m 22.638887,-13.4207 c 1.347479,-3.2782 3.065428,-6.4963 3.817754,-7.1513 0.752181,-0.6549 0.01872,-4.9792 -1.630185,-9.6094 -3.942883,-11.0718 -4.132664,-12.0254 -2.480972,-12.452 3.745438,-0.9672 9.61127,20.372 6.374697,23.19 -0.74554,0.6491 -1.712968,2.743 -2.149638,4.6535 -0.436985,1.9103 -2.05142,4.341 -3.587913,5.4013 -2.593474,1.7901 -2.61807,1.5015 -0.343743,-4.0321 z M -586.11888,986.82052 c -0.4657,-1.80315 4.52433,-4.13432 7.21944,-3.37274 2.10176,0.59454 1.22906,3.545 -1.46923,4.96487 -2.55546,1.34522 -5.1799,0.61851 -5.75073,-1.59229 z m 550.29663,129.84258 c 0.55983,-1.8043 1.62297,-3.0928 2.36268,-2.8632 0.73951,0.2294 2.26347,-0.7543 3.38678,-2.1859 2.27549,-2.9009 28.684533,-19.5112 30.249206,-19.0257 1.370805,0.4253 9.262532,-9.2743 11.005954,-13.5273 0.783448,-1.9112 1.986958,-4.563 2.674489,-5.8931 1.834868,-3.5501 -5.872815,-6.4978 -10.79124,-4.127 -1.989359,0.9588 -4.096097,1.5947 -4.681683,1.413 -2.242945,-0.696 -1.66336,2.063 0.748742,3.5641 1.666646,1.037 2.004635,2.036 0.988104,2.9209 -1.170043,1.0188 -1.553402,0.9233 -1.580821,-0.3942 -0.02008,-0.9562 -0.612367,-1.9173 -1.316748,-2.1358 -0.704066,-0.2185 -1.070339,0.4152 -0.813966,1.4082 0.267575,1.0362 0.0037,1.2743 -0.619415,0.5586 -1.33964,-1.5386 -13.68875,4.5398 -13.185259,6.4897 0.508571,1.9695 -7.132333,9.5368 -13.242873,13.1154 -5.65528,3.312 -7.89182,1.2425 -3.01022,-2.7856 3.71746,-3.0675 10.87236,-13.5728 10.42471,-15.3063 -0.55985,-2.1677 -3.54015,-2.4458 -7.98228,-0.745 -4.03868,1.5463 -4.30418,1.481 -6.19512,-1.5226 -1.08643,-1.726 -1.57781,-4.42 -1.09171,-5.9866 0.48614,-1.5668 -0.0247,-3.5716 -1.13517,-4.4551 -1.80606,-1.4372 -1.58545,-1.7822 2.09449,-3.273 3.57431,-1.4481 4.4406,-2.7208 6.60931,-9.7104 2.3856,-7.6885 2.64176,-8.0018 5.79621,-7.0895 1.81522,0.5245 3.49094,1.5556 3.72436,2.2903 0.23324,0.7346 2.240238,1.2222 4.4598,1.0833 5.020817,-0.314 6.272255,1.034 4.94147,5.323 -0.778723,2.5097 -0.458143,3.3054 1.285425,3.191 1.277552,-0.084 2.778738,-0.011 3.336014,0.1619 2.038803,0.6326 9.296183,-3.7333 13.110316,-7.887 2.154459,-2.3463 4.913971,-4.3314 6.132118,-4.4113 1.719904,-0.113 1.914003,-0.4911 0.868403,-1.6919 -1.08068,-1.2414 -0.871103,-1.8561 1.062164,-3.1157 1.998999,-1.3018 2.285468,-2.211 1.683147,-5.3395 -0.400072,-2.0739 -0.409272,-3.9236 -0.02051,-4.1104 1.002474,-0.4817 20.777897,-0.099 29.517776,0.5704 8.851111,0.6784 10.997307,-0.2714 11.25641,-4.9806 0.292937,-5.3259 -4.283035,-12.5147 -10.986726,-17.2601 -4.419102,-3.1282 -5.516612,-4.5662 -4.29606,-5.6289 1.25757,-1.0949 2.164877,-0.8947 3.895381,0.8597 1.240692,1.2577 3.569715,2.6946 5.175279,3.1928 3.358861,1.0422 10.846617,15.6092 9.783943,19.0341 -0.372831,1.2016 0.110576,2.8059 1.074539,3.5651 1.354081,1.0668 1.178643,2.5398 -0.772064,6.4826 -2.316233,4.6817 -3.166517,11.9694 -2.342593,20.0738 0.166027,1.6339 -0.07924,4.7946 -0.545125,7.0236 -0.926661,4.4328 -0.629648,4.591 10.845715,5.7767 11.964888,1.2361 18.308018,-1.1298 23.570948,-8.7919 1.11144,-1.6179 4.16543,-5.1892 6.78678,-7.9363 2.62155,-2.747 4.91078,-6.2444 5.0874,-7.7721 0.17642,-1.5276 1.3429,-6.6681 2.59214,-11.4233 1.6062,-6.1154 1.84324,-10.2524 0.80956,-14.1344 -0.80386,-3.0186 -1.29487,-6.0331 -1.09129,-6.6988 0.20626,-0.6648 -0.20089,-2.4403 -0.89903,-3.9437 -1.0038,-2.162 -0.56628,-4.1544 2.09355,-9.5335 4.7905,-9.68838 4.03968,-14.76134 -3.22765,-21.80663 -4.87833,-4.72923 -7.28755,-6.00212 -16.46715,-8.70031 -23.774844,-6.98801 -25.104123,-7.53496 -26.351153,-10.84273 -0.650925,-1.72668 -2.720588,-7.17017 -4.599182,-12.09662 l -3.415723,-8.95703 -11.367422,-3.06315 c -9.430477,-2.54126 -11.939985,-2.73558 -14.725986,-1.14081 -1.847202,1.05744 -4.811613,1.47163 -6.587873,0.92049 -1.776049,-0.55107 -3.393004,-0.47463 -3.592957,0.1698 -0.199998,0.64457 -1.482947,1.24527 -2.851095,1.33519 -2.180168,0.14308 -2.08504,-0.075 0.770511,-1.76497 1.792006,-1.06033 3.969863,-1.70719 4.839906,-1.43724 0.869939,0.26993 4.248485,-0.32057 7.507842,-1.31229 6.605646,-2.00986 15.548867,-1.01373 22.129139,2.46495 4.230116,2.23622 14.159264,17.57722 13.257542,20.48339 -0.828803,2.67115 5.878573,6.61149 12.248712,7.1955 14.416479,1.32185 26.212179,6.45028 30.061679,13.0702 0.70148,1.20665 1.79545,2.35527 2.43094,2.55245 0.63549,0.19718 2.58151,3.16669 4.32475,6.59892 3.05848,6.02232 3.06233,6.56743 0.11282,15.59219 -2.54194,7.7753 -2.81564,10.6686 -1.62729,17.1647 0.78602,4.2971 2.05231,8.7698 2.81372,9.9392 0.9676,1.4859 0.68632,3.5379 -0.93388,6.8125 -1.41866,2.8678 -1.86237,5.2099 -1.14339,6.0356 2.04195,2.3454 -1.69699,11.042 -7.17445,16.6867 -2.90285,2.9915 -5.51693,6.2005 -5.80897,7.131 -0.58891,1.898 -6.8077,6.9835 -13.27616,10.8713 -3.01143,1.8101 -6.143296,2.2598 -10.569543,1.5174 -3.459642,-0.5803 -8.302866,-0.8272 -10.762915,-0.5486 -2.460049,0.2786 -5.719547,0.3521 -7.243343,0.1631 -1.612861,-0.1998 -3.32688,0.8304 -4.101966,2.4656 -0.732033,1.545 -1.788698,2.6671 -2.347966,2.4936 -2.75262,-0.8541 -9.934428,3.801 -10.959114,7.1034 -0.613134,1.9761 -3.188231,5.3643 -5.722326,7.5294 -2.534259,2.1648 -5.407717,5.0861 -6.385492,6.4914 -2.281672,3.279 -6.125355,4.8681 -7.620738,3.1506 -0.818872,-0.9405 -0.358404,-2.0089 1.550641,-3.5987 1.49357,-1.2436 3.483874,-3.641 4.42337,-5.3275 0.93929,-1.6865 2.337331,-3.8421 3.106474,-4.7903 0.769352,-0.9481 0.914151,-3.0536 0.323403,-4.6787 -1.001607,-2.7521 -1.806259,-2.5578 -11.733887,2.8327 -5.862431,3.1832 -12.600095,7.7746 -14.973062,10.2031 -5.367052,5.4933 -15.41664,12.2628 -24.090066,16.2273 -3.63305,1.6608 -7.83053,3.7723 -9.32785,4.6923 -3.76974,2.3162 -4.94213,1.6148 -3.74571,-2.2412 z m 0.6759,-45.3743 c -0.0941,-1.1767 -0.50152,-0.9624 -1.03877,0.5469 -0.4858,1.3656 -0.41647,2.2369 0.1549,1.9361 0.57126,-0.3008 0.96909,-1.4181 0.88419,-2.4829 z m 5.99554,0.6915 c 0.22393,-0.7218 -0.18336,-1.4955 -0.90504,-1.7194 -0.72179,-0.224 -1.49552,0.1833 -1.71946,0.905 -0.22393,0.7218 0.18336,1.4955 0.90515,1.7194 0.72168,0.224 1.49541,-0.1833 1.71935,-0.905 z m 45.903745,9.1395 c -1.264269,-2.4016 -1.523588,-2.2653 -2.661052,1.4007 -1.13747,3.6659 -1.00087,3.9251 1.400827,2.6609 2.401592,-1.2642 2.52439,-1.6599 1.260225,-4.0616 z m -40.510085,-18.924 c 0.59395,-2.7723 0.85157,-5.9242 0.57252,-7.0045 -0.79447,-3.0767 -3.6202,0.066 -4.08517,4.543 -0.21284,2.0511 -1.16171,3.9293 -2.10858,4.1737 -3.0943,0.7991 -2.45194,2.5415 1.08349,2.9391 3.05931,0.3439 3.58259,-0.1923 4.53774,-4.6513 z m 13.785279,9.0388 c 3.692495,-1.7145 4.911118,-4.7266 2.246572,-5.5534 -1.91204,-0.5933 -5.819817,2.3667 -6.647891,5.0355 -0.617936,1.9916 0.854402,2.1649 4.401319,0.5179 z m 43.626075,11.6015 c 0.454426,-1.4646 -0.06056,-2.8959 -1.165152,-3.2387 -1.650963,-0.5122 -1.842612,-0.094 -1.154753,2.5188 0.453525,1.7232 0.977991,3.1806 1.165148,3.2387 0.187157,0.058 0.706889,-1.0754 1.154757,-2.5188 z m -16.65359,-15.8716 c 0.429751,-1.385 -1.908101,-2.7483 -3.033197,-1.7687 -0.680969,0.5929 -0.317331,1.3635 0.807811,1.7127 1.125143,0.3491 2.12661,0.3744 2.225386,0.056 z m 27.987778,7.1606 c 0.335904,-1.0825 -0.240122,-2.2323 -1.280336,-2.5551 -2.192198,-0.6801 -4.253074,0.7336 -3.40849,2.3382 1.081711,2.0549 4.075569,2.1934 4.688826,0.2169 z m -10.234602,-6.4236 c 1.562357,0.065 3.566685,-0.1363 4.454225,-0.4465 0.887288,-0.3102 3.595614,-0.3844 6.018524,-0.1647 4.548478,0.4122 7.582725,-2.3612 6.628123,-6.058 -0.423708,-1.6407 -1.317286,-1.9385 -4.572539,-1.5238 -3.319719,0.4227 -4.321755,0.057 -5.583669,-2.0404 -2.07205,-3.4427 -5.637905,-4.8521 -11.366422,-4.4926 -5.289627,0.332 -6.102153,1.2722 -3.952305,4.5735 0.797751,1.2253 1.114611,2.5357 0.703818,2.9121 -0.410751,0.3762 -0.65392,2.2371 -0.538979,4.1357 0.152581,2.5312 0.896107,3.3897 2.78828,3.2194 1.419193,-0.1278 3.858558,-0.1794 5.420915,-0.1146 z m -12.960103,-7.9624 c 1.273113,-0.4908 -0.126141,-5.0776 -1.697733,-5.5652 -2.66549,-0.8271 -8.839388,2.6638 -7.118949,4.0253 1.182514,0.9359 7.514838,2.0419 8.816682,1.5399 z m 30.178812,-5.0872 c 0.773028,-0.981 1.161305,-2.2476 0.858702,-2.8157 -0.644513,-1.2246 -5.416569,0.5456 -5.929786,2.1996 -0.614438,1.9803 3.589547,2.4903 5.066995,0.6148 z m -19.069272,-6.486 c 0.381576,0.045 0.0043,-0.7255 -0.838066,-1.7137 -1.616381,-1.8962 -3.790838,-1.9131 -4.373882,-0.034 -0.190915,0.6153 0.747657,1.2416 2.085714,1.3916 1.337913,0.1502 2.74478,0.3104 3.126234,0.3561 z m -10.652414,-5.6258 c 0.810392,-1.0288 0.753852,-1.6238 -0.132621,-1.3948 -0.850201,0.2195 -1.718465,0.9548 -1.929169,1.6339 -0.585651,1.8875 0.483984,1.7635 2.06179,-0.2391 z m 0.654154,-6.1958 c 0.669967,-0.5834 0.2979,-1.3461 -0.827557,-1.6954 -1.125142,-0.3491 -2.229045,-0.044 -2.452981,0.6775 -0.223936,0.7217 0.148442,1.4846 0.827659,1.6953 0.679007,0.2107 1.782913,-0.094 2.452879,-0.6774 z m 27.653093,7.7432 c 0.792285,-1.0057 1.895983,-3.2962 2.452601,-5.0902 0.773023,-2.4913 0.419637,-3.2688 -1.496075,-3.2919 -1.379468,-0.017 -4.093397,-0.1367 -6.031098,-0.2668 -2.721823,-0.1828 -3.828048,0.6345 -4.864683,3.5939 -1.256297,3.5854 -1.027136,3.9279 3.578493,5.3569 3.276135,1.0165 5.40172,0.9156 6.360762,-0.3019 z M 35.778226,1038.9 c 0.223936,-0.7217 -0.148442,-1.4846 -0.827659,-1.6953 -0.679006,-0.2107 -1.78291,0.094 -2.452876,0.6774 -0.669966,0.5834 -0.296956,1.3465 0.827554,1.6954 1.125142,0.3491 2.229046,0.044 2.452981,-0.6775 z M -469.08394,929.72392 c 0.66997,-0.58333 2.21395,-0.74168 3.43088,-0.35202 1.90694,0.61043 1.88616,0.80002 -0.15034,1.3699 -3.08505,0.8634 -4.8222,0.32439 -3.28054,-1.01788 z m 12.19668,0.1001 c 0.096,-0.30942 3.37974,-0.98257 7.29726,-1.49604 3.91749,-0.51333 11.22167,-2.39434 16.23125,-4.17985 5.00968,-1.78548 10.73148,-3.53515 12.71484,-3.88819 2.95699,-0.52623 2.55895,-0.0558 -2.20979,2.6128 -3.19904,1.79014 -8.31733,3.68188 -11.37423,4.20374 -3.0569,0.52185 -5.94914,1.16614 -6.42707,1.43172 -3.98755,2.21541 -16.83452,3.25685 -16.23226,1.31582 z m 151.89413,22.77193 c -0.6466,-0.4659 -5.83655,-4.08115 -11.53311,-8.03411 -5.69648,-3.95281 -10.19175,-7.72019 -9.98947,-8.37211 0.43028,-1.38675 7.92861,2.53204 9.2217,4.81931 0.48539,0.85838 2.43745,2.04322 4.33795,2.63291 1.90061,0.58972 3.75403,1.63938 4.11898,2.3325 1.11007,2.10881 10.36861,7.8244 11.99431,7.40455 0.84358,-0.21786 0.89613,0.1529 0.11757,0.83099 -1.31531,1.14509 -5.59914,0.3089 -8.26793,-1.61404 z m -107.66817,-35.4911 c 0.22662,-0.73038 2.36035,-1.86997 4.74162,-2.53226 2.38127,-0.66228 6.14466,-2.13821 8.36312,-3.27971 2.21814,-1.14158 4.29362,-1.57149 4.61201,-0.95539 0.31821,0.6159 -2.41456,2.4218 -6.07303,4.013 -8.35526,3.63373 -12.19867,4.54292 -11.64372,2.75436 z m 80.55018,16.30148 c -0.22567,-0.87417 -1.61306,-1.9625 -3.08306,-2.41861 -3.11896,-0.96775 -8.78055,-6.8627 -8.94113,-9.30988 -0.0621,-0.9464 1.64524,0.0235 3.88908,2.20953 2.19996,2.1433 4.94317,4.18945 6.09609,4.54718 3.07546,0.95425 6.21077,5.58977 4.14209,6.12407 -0.93082,0.24042 -1.87741,-0.27813 -2.10307,-1.15229 z m -169.90662,-60.06001 c -0.67342,-2.60773 3.14643,-4.17301 4.395,-1.80114 1.04442,1.98402 -0.77186,4.48918 -2.79871,3.86029 -0.63654,-0.19751 -1.3549,-1.12414 -1.59629,-2.05915 z m 117.21893,32.13235 c 3.89379,-1.61759 6.46379,-1.64157 5.97179,-0.0559 -0.43142,1.39042 -5.7967,2.94387 -7.9028,2.28809 -1.36733,-0.42541 -0.77772,-1.10687 1.93101,-2.2322 z m 36.66217,9.98487 c -0.2221,-0.86012 0.18665,-1.38064 0.90844,-1.15669 0.72168,0.22392 1.49396,1.1109 1.71605,1.97101 0.2221,0.86011 -0.18676,1.38061 -0.90844,1.15669 -0.72179,-0.22395 -1.49395,-1.11091 -1.71605,-1.97101 z m -25.45848,-12.99402 c 0.17227,-0.5552 8.51602,-1.61088 12.72726,-1.61027 2.36024,4.1e-4 2.14216,0.2869 -1.21414,1.59511 -2.25008,0.87705 -4.69987,1.46975 -5.44356,1.31711 -0.74377,-0.15308 -2.44728,-0.40043 -3.78519,-0.55057 -1.33806,-0.15005 -2.36605,-0.48814 -2.28419,-0.75195 z m 240.07887,42.23935 c 0.80686,-2.60042 40.51166,1.06095 59.43774,5.48124 6.63976,1.55066 13.84202,2.63798 16.00531,2.41628 2.16319,-0.22171 4.17865,0.0634 4.47881,0.63344 0.2999,0.57009 0.75923,0.34776 1.02054,-0.4944 0.26127,-0.84205 1.31162,-1.27138 2.33401,-0.95416 1.02239,0.31723 2.1965,0.18436 2.60915,-0.29539 0.41262,-0.47962 4.46138,-1.88022 8.99763,-3.11232 4.53604,-1.23215 8.42231,-2.80402 8.63615,-3.4932 0.21379,-0.68904 0.86599,-0.70462 1.44938,-0.0346 0.58329,0.66994 1.32524,0.3651 1.64851,-0.67675 0.89403,-2.88137 12.730366,-6.08277 20.159017,-5.45243 6.599875,0.56005 5.716561,3.54617 -0.973524,3.29316 -8.321813,-0.31493 -23.626693,4.13452 -22.378363,6.50604 0.30208,0.57378 -1.52012,1.11463 -4.04924,1.20209 -2.52902,0.0875 -4.75973,0.67984 -4.95724,1.31638 -0.19751,0.63657 -5.93887,2.02844 -12.75878,3.09328 -11.04798,1.72493 -13.44785,1.61068 -22.01837,-1.04858 -5.29019,-1.64143 -11.78583,-2.77823 -14.43436,-2.52599 -2.64863,0.25221 -8.46984,-0.2183 -12.93596,-1.04561 -4.46616,-0.82716 -13.39348,-1.88639 -19.83828,-2.35388 -13.67734,-0.99196 -12.931,-0.84453 -12.4315,-2.45437 z m -47.27077,-37.73934 c 0.22394,-0.72172 1.55327,-0.95661 2.95417,-0.52194 1.40079,0.43464 2.72877,1.49404 2.95076,2.35412 0.22904,0.88701 -1.04957,1.11289 -2.95416,0.52193 -1.84672,-0.573 -3.1747,-1.63238 -2.95077,-2.35411 z M -329.0318,835.67087 c -4.12886,-8.26756 -4.46557,-11.33847 -1.25011,-11.4056 1.34937,-0.0283 1.46034,-0.67673 0.44622,-2.60356 -1.13024,-2.14716 -2.09081,-2.50173 -5.88506,-2.17257 -2.49387,0.21651 -5.59213,1.08243 -6.88522,1.9244 -2.84742,1.85421 -9.87293,-0.17619 -12.28489,-3.55035 -0.96356,-1.34811 -1.46665,-4.55855 -1.11792,-7.13425 1.29992,-9.60149 1.23381,-10.97064 -0.55639,-11.5261 -1.00845,-0.3129 -3.16713,0.95934 -4.79736,2.82713 -1.63024,1.86777 -3.41041,3.25746 -3.95594,3.08819 -0.54543,-0.16923 -1.32882,0.77854 -1.74074,2.1061 -0.76826,2.47603 -6.59391,3.93915 -10.6604,2.6774 -2.91157,-0.9034 -8.12193,-14.46105 -5.57806,-14.51416 0.98932,-0.0207 2.96233,2.62543 4.38463,5.88026 2.23367,5.112 3.00291,5.82093 5.64862,5.20546 1.68469,-0.39177 3.60561,-1.77534 4.26874,-3.0746 0.66324,-1.29921 3.39038,-3.84529 6.06038,-5.65816 3.58054,-2.43104 5.48197,-2.87567 7.24543,-1.69425 4.11114,2.75414 5.22082,6.38008 3.62168,11.83403 -0.84874,2.89471 -0.95095,6.35407 -0.22732,7.68714 1.74669,3.21738 8.91582,3.95621 10.69194,1.10183 0.74381,-1.1951 2.67676,-1.96024 4.29553,-1.70023 1.94787,0.31294 3.05494,-0.35514 3.27284,-1.97467 0.41548,-3.08869 3.96601,-4.93289 7.37247,-3.82962 1.68661,0.54631 2.37294,1.79289 1.93382,3.51265 -1.74151,6.82259 -1.65199,7.39946 1.29041,8.31243 2.98518,0.92623 10.17222,13.12135 10.37517,17.60471 0.0638,1.40639 0.46797,1.13017 1.13148,-0.77302 0.56747,-1.62888 1.84353,-2.96754 2.83489,-2.97485 0.99125,-0.007 6.63191,0.069 12.5347,0.16946 5.90286,0.10068 12.96848,-0.0738 15.70147,-0.3875 5.61583,-0.64466 7.37887,0.83671 3.45451,2.90255 -2.42246,1.27515 -9.09839,1.47032 -24.04006,0.70307 -4.3318,-0.22257 -6.28589,0.40438 -7.1893,2.3065 -1.257,2.64718 -5.66813,3.86574 -12.55391,3.46843 -3.23757,-0.18688 -4.37592,-1.39661 -7.84225,-8.33825 z m 11.44736,2.18943 c 0.45654,-1.47139 -2.0669,-8.5027 -3.17474,-8.84644 -1.34837,-0.41837 -3.35138,5.2125 -2.45793,6.90958 0.71743,1.36307 5.3197,2.94556 5.63267,1.93686 z M 3.035209,938.11185 c 0.669963,-0.58332 1.773866,-0.88814 2.452873,-0.67746 0.679217,0.21075 1.051598,0.97363 0.827665,1.69534 -0.223935,0.72172 -1.327842,1.02656 -2.452984,0.67745 -1.125143,-0.34911 -1.49752,-1.112 -0.827554,-1.69533 z M -426.46838,783.43093 c -0.62342,-2.41398 4.33178,-6.49331 10.50387,-8.64732 2.65587,-0.92679 5.0692,-2.45997 5.363,-3.40686 0.58443,-1.88356 1.95985,-1.7491 4.77236,0.46674 2.79881,2.20483 1.16371,5.63825 -1.72668,3.62597 -1.30111,-0.90591 -2.52106,-1.16618 -2.71079,-0.57842 -0.18306,0.58997 -3.8034,3.17264 -8.03069,5.74393 -5.16397,3.14107 -7.84498,4.05849 -8.17107,2.79596 z m 38.22828,5.12601 c -0.60036,-1.2521 -0.93183,-2.79219 -0.73627,-3.42246 0.45883,-1.47874 -3.31494,-5.06571 -9.70479,-9.22443 -2.8676,-1.8664 -5.53123,-4.90882 -6.13175,-7.00395 -1.0173,-3.54879 -0.92313,-3.66113 2.24899,-2.67688 1.97003,0.61125 3.07887,1.77456 2.73812,2.87275 -0.37524,1.20935 0.42143,1.89026 2.31141,1.97563 1.68381,0.0759 3.65905,1.43944 4.74634,3.27678 1.02416,1.73072 2.34613,2.89211 2.93735,2.5807 0.5914,-0.31122 2.03763,0.40968 3.21377,1.60206 1.17613,1.19239 1.68264,2.40803 1.12544,2.70125 -0.55708,0.29323 -0.57302,2.06907 -0.0344,3.94662 1.1667,4.06973 -1.05568,6.83053 -2.71419,3.37193 z m -61.44328,-39.5852 c 0.57369,-1.84892 2.31494,-2.23853 4.01597,-0.89853 2.41241,1.90052 1.27802,3.73988 -1.73075,2.80632 -1.44347,-0.44788 -2.47181,-1.30641 -2.28522,-1.90779 z m 15.84885,-37.17025 c 0.23013,-0.74168 -0.28535,-1.16675 -1.14542,-0.94464 -0.86007,0.2221 -1.36981,-0.22148 -1.13264,-0.98583 0.23713,-0.76424 1.90746,-0.93159 3.71171,-0.37177 3.60862,1.11968 3.82442,3.27816 0.35066,3.50609 -1.21148,0.0795 -2.01443,-0.46219 -1.78431,-1.20385 z m -7.60651,-29.9612 c -3.47238,-3.10504 -1.25042,-9.78387 5.34254,-16.05937 2.80704,-2.67203 5.28433,-5.44048 5.50509,-6.15198 0.38647,-1.24555 10.01323,-9.7218 12.01224,-10.5765 0.53608,-0.22927 2.55737,-2.02966 4.49156,-4.00093 9.59473,-9.77815 10.29063,-10.32134 11.14382,-8.70049 0.56416,1.07169 -1.14685,3.92586 -4.81274,8.02156 -3.12863,3.49697 -5.85288,6.88835 -6.05393,7.53633 -0.20102,0.64784 -2.37061,1.94563 -4.82108,2.88393 -4.96404,1.90063 -15.50018,10.9613 -14.99985,12.8992 0.17704,0.68487 -0.15635,1.09772 -0.7405,0.91733 -1.3556,-0.42061 -4.04973,8.71018 -3.61338,12.24571 0.43358,3.51297 -0.37059,3.74235 -3.45377,0.98521 z m -35.52873,-22.93992 c 1.3863,-2.27778 1.36076,-4.01514 -0.0953,-6.55916 -1.08967,-1.90339 -1.54109,-4.87912 -1.0032,-6.61268 0.53789,-1.73358 0.50074,-3.70024 -0.0824,-4.37017 -1.3061,-1.49999 0.0828,-6.44778 1.67146,-5.95485 1.64268,0.50969 2.76944,3.87279 2.68928,8.02719 -0.0378,1.96628 1.45736,6.02212 3.3226,9.01302 2.68629,4.30745 3.012,5.98315 1.5665,8.05944 -1.00389,1.44169 -2.23495,2.15042 -2.73593,1.57491 -0.50103,-0.57537 -1.46836,-0.56066 -2.14893,0.0317 -0.68108,0.59282 -2.1002,0.81034 -3.15404,0.48336 -1.40048,-0.43454 -1.40853,-1.42806 -0.03,-3.69272 z m 78.89709,-29.90154 c 0.60055,-1.93553 9.42247,-7.06511 10.06173,-5.85058 0.82186,1.56107 -7.86662,8.49329 -9.86705,7.8726 -0.41247,-0.12799 -0.50005,-1.03785 -0.19468,-2.02202 z m 1.01462,-19.10505 c -0.32837,-1.27185 2.05153,-1.85084 10.37143,-2.52291 2.52061,-0.20376 3.90675,0.15843 3.65924,0.95614 -0.21917,0.70636 0.8175,1.66142 2.30343,2.12247 1.53752,0.47706 2.15565,1.31404 1.43432,1.94214 -0.69739,0.60689 -2.26753,0.40757 -3.48955,-0.44316 -1.222,-0.85086 -3.8029,-1.22445 -5.73523,-0.8295 -4.55613,0.93016 -8.11902,0.41921 -8.54364,-1.22518 z m -72.1919,-187.3105 c 0.3359,-1.08258 1.10279,-1.81565 1.70421,-1.62905 0.60153,0.18664 0.81876,1.22507 0.48285,2.30765 -0.3359,1.08258 -1.10279,1.81566 -1.70431,1.62902 -0.60142,-0.18661 -0.81865,-1.22504 -0.48275,-2.30762 z m -31.16659,-96.10408 c -0.14853,-2.26303 3.98666,-4.95167 6.56666,-4.26955 1.91589,0.50676 -0.12441,3.80579 -3.2518,5.25795 -2.93773,1.36399 -3.16487,1.29624 -3.31492,-0.98821 z m -19.15779,-49.20739 c -0.81557,-1.54947 3.00255,-3.876 5.22809,-3.18546 2.49133,0.77301 1.2043,4.18194 -1.64958,4.36917 -2.87314,0.18858 -2.8524,0.19545 -3.57849,-1.18378 z m -6.78098,-8.70981 c -0.23919,-3.89385 3.36354,-7.35031 4.0371,-3.87322 1.03625,5.34926 0.34423,8.46939 -1.73526,7.82417 -1.1545,-0.35821 -2.19023,-2.13611 -2.30184,-3.95095 z m -0.45105,-12.57278 c -0.34223,-1.7736 -0.28525,-3.1201 0.12639,-2.99238 0.41164,0.12773 0.49628,-1.07598 0.1877,-2.675 -0.41432,-2.14771 -0.0464,-2.941 1.40736,-3.03658 1.28046,-0.084 1.96228,1.69756 1.952,5.10071 -0.0185,5.98081 -2.70704,8.6171 -3.67345,3.60325 z m 4.62839,-17.05992 c 2.01051,-2.34319 4.32819,-5.34631 5.15069,-6.67351 0.8225,-1.32721 2.38154,-2.78551 3.46493,-3.24056 1.08328,-0.45507 3.40703,-2.48529 5.16371,-4.51164 1.75668,-2.02635 3.6613,-3.53928 4.23231,-3.3621 0.57091,0.17714 0.79281,-0.94959 0.49296,-2.50376 -0.29975,-1.55414 0.10985,-3.20727 0.9105,-3.67351 0.80054,-0.46627 2.76289,-3.733 4.36089,-7.25951 2.46541,-5.44151 2.61775,-6.89753 1.00599,-9.62105 -2.21105,-3.73606 -1.97162,-5.66279 0.60422,-4.86356 0.99838,0.30978 2.52604,-0.5791 3.39491,-1.97536 2.64505,-4.25047 4.78332,-0.82182 2.98371,4.78441 -3.65712,11.39202 -9.46574,23.13959 -12.80124,25.8889 -2.00169,1.64981 -3.66777,4.34846 -3.8867,6.29508 -0.21069,1.87409 -0.96132,3.22789 -1.66906,3.00829 -0.70742,-0.2195 -3.97534,2.65062 -7.26224,6.37799 -3.34361,3.79161 -6.81872,6.51559 -7.88871,6.18359 -1.6365,-0.50777 -1.38506,-1.20772 1.74313,-4.8537 z m 45.49178,-37.38784 c 0.64842,-1.20886 2.05567,-2.2161 3.12701,-2.23815 1.24592,-0.0257 1.52324,0.752 0.76893,2.15805 -0.64842,1.20886 -2.05557,2.21614 -3.12701,2.23815 -1.24592,0.0257 -1.52304,-0.75193 -0.76893,-2.15805 z"
         style="fill:#0000ff;stroke:none;stroke-opacity:1" />
    </g>
    <g
       id="g12788"
       transform="translate(1081.5768,-429.34697)">
      <rect
         rx="2"
         style="fill:#ffffff;fill-opacity:0.85024157;stroke:none;stroke-width:7;stroke-linecap:round;stroke-linejoin:round;stroke-miterlimit:4;stroke-dasharray:14, 7;stroke-dashoffset:0;stroke-opacity:1"
         id="rect12639"
         width="138.89404"
         height="56.506653"
         x="-678.14941"
         y="948.89667" />
      <text
         xml:space="preserve"
         style="font-style:normal;font-variant:normal;font-weight:normal;font-stretch:normal;font-size:11.25px;line-height:125%;font-family:cmr10;-inkscape-font-specification:cmr10;letter-spacing:0px;word-spacing:0px;fill:#000000;fill-opacity:1;stroke:none;stroke-width:1px;stroke-linecap:butt;stroke-linejoin:miter;stroke-opacity:1"
         x="-638.6167"
         y="996.08478"
         id="text12641"
         sodipodi:linespacing="125%"><tspan
           sodipodi:role="line"
           id="tspan12643"
           x="-638.6167"
           y="996.08478">Omnistar</tspan></text>
      <text
         xml:space="preserve"
         style="font-style:normal;font-variant:normal;font-weight:normal;font-stretch:normal;font-size:11.25px;line-height:125%;font-family:cmr10;-inkscape-font-specification:cmr10;letter-spacing:0px;word-spacing:0px;fill:#000000;fill-opacity:1;stroke:none;stroke-width:1px;stroke-linecap:butt;stroke-linejoin:miter;stroke-opacity:1"
         x="-638.33105"
         y="981.90546"
         id="text12641-6"
         sodipodi:linespacing="125%"><tspan
           sodipodi:role="line"
           id="tspan12643-2"
           x="-638.33105"
           y="981.90546">Ublox</tspan></text>
      <text
         xml:space="preserve"
         style="font-style:normal;font-variant:normal;font-weight:normal;font-stretch:normal;font-size:11.25px;line-height:125%;font-family:cmr10;-inkscape-font-specification:cmr10;letter-spacing:0px;word-spacing:0px;fill:#000000;fill-opacity:1;stroke:none;stroke-width:1px;stroke-linecap:butt;stroke-linejoin:miter;stroke-opacity:1"
         x="-638.34753"
         y="965.83118"
         id="text12641-6-6"
         sodipodi:linespacing="125%"><tspan
           sodipodi:role="line"
           id="tspan12643-2-1"
           x="-638.34753"
           y="965.83118">Approximate path</tspan></text>
      <path
         inkscape:connector-curvature="0"
         id="path12709"
         d="m -645.23494,962.89508 -24.92551,0"
         style="fill:none;fill-rule:evenodd;stroke:#000000;stroke-width:1.60000002;stroke-linecap:butt;stroke-linejoin:miter;stroke-miterlimit:4;stroke-dasharray:4.8, 1.6;stroke-dashoffset:0;stroke-opacity:1" />
      <g
         transform="translate(-0.44194,6.1973497)"
         id="g12784">
        <path
           style="fill:#0000ff;fill-opacity:1;fill-rule:evenodd;stroke:#0000ff;stroke-width:1.5;stroke-linecap:butt;stroke-linejoin:miter;stroke-miterlimit:4;stroke-dasharray:none;stroke-opacity:1"
           d="m -644.793,971.92881 -24.92551,0"
           id="path12709-8-9"
           inkscape:connector-curvature="0" />
      </g>
      <g
         transform="translate(-1.69769,-5.1198904)"
         id="g12780">
        <path
           style="fill:#ff0000;fill-opacity:1;fill-rule:evenodd;stroke:#ff0000;stroke-width:1.5;stroke-linecap:butt;stroke-linejoin:miter;stroke-miterlimit:4;stroke-dasharray:none;stroke-opacity:1"
           d="m -643.53725,997.3622 -24.92551,0"
           id="path12709-8-9-2"
           inkscape:connector-curvature="0" />
      </g>
    </g>
  </g>
</svg>
