<?xml version="1.0" encoding="UTF-8" standalone="no"?>
<!-- Created with Inkscape (http://www.inkscape.org/) -->

<svg
   xmlns:dc="http://purl.org/dc/elements/1.1/"
   xmlns:cc="http://creativecommons.org/ns#"
   xmlns:rdf="http://www.w3.org/1999/02/22-rdf-syntax-ns#"
   xmlns:svg="http://www.w3.org/2000/svg"
   xmlns="http://www.w3.org/2000/svg"
   xmlns:sodipodi="http://sodipodi.sourceforge.net/DTD/sodipodi-0.dtd"
   xmlns:inkscape="http://www.inkscape.org/namespaces/inkscape"
   sodipodi:docname="canopy_data.svg"
   inkscape:version="0.91 r13725"
   version="1.1"
   id="svg2"
   viewBox="0 0 487.49997 253.96706"
   height="71.675148mm"
   width="137.58333mm">
  <defs
     id="defs4">
    <marker
       inkscape:stockid="Arrow2Send"
       orient="auto"
       refY="0"
       refX="0"
       id="Arrow2Send"
       style="overflow:visible"
       inkscape:isstock="true">
      <path
         id="path4186"
         style="fill:#0000ff;fill-opacity:1;fill-rule:evenodd;stroke:#0000ff;stroke-width:0.625;stroke-linejoin:round;stroke-opacity:1"
         d="M 8.7185878,4.0337352 -2.2072895,0.01601326 8.7185884,-4.0017078 c -1.7454984,2.3720609 -1.7354408,5.6174519 -6e-7,8.035443 z"
         transform="matrix(-0.3,0,0,-0.3,0.69,0)"
         inkscape:connector-curvature="0" />
    </marker>
    <marker
       inkscape:stockid="Arrow1Mend"
       orient="auto"
       refY="0"
       refX="0"
       id="Arrow1Mend"
       style="overflow:visible"
       inkscape:isstock="true">
      <path
         id="path4162"
         d="M 0,0 5,-5 -12.5,0 5,5 0,0 Z"
         style="fill:#000000;fill-opacity:1;fill-rule:evenodd;stroke:#000000;stroke-width:1pt;stroke-opacity:1"
         transform="matrix(-0.4,0,0,-0.4,-4,0)"
         inkscape:connector-curvature="0" />
    </marker>
    <marker
       inkscape:stockid="Arrow2Send"
       orient="auto"
       refY="0"
       refX="0"
       id="Arrow2Send-6"
       style="overflow:visible"
       inkscape:isstock="true">
      <path
         inkscape:connector-curvature="0"
         id="path4186-7"
         style="fill:#000000;fill-opacity:1;fill-rule:evenodd;stroke:#000000;stroke-width:0.625;stroke-linejoin:round;stroke-opacity:1"
         d="M 8.7185878,4.0337352 -2.2072895,0.01601326 8.7185884,-4.0017078 c -1.7454984,2.3720609 -1.7354408,5.6174519 -6e-7,8.035443 z"
         transform="matrix(-0.3,0,0,-0.3,0.69,0)" />
    </marker>
  </defs>
  <sodipodi:namedview
     inkscape:window-maximized="0"
     inkscape:window-y="0"
     inkscape:window-x="3840"
     inkscape:window-height="2160"
     inkscape:window-width="3840"
     fit-margin-bottom="0"
     fit-margin-right="0"
     fit-margin-left="0"
     fit-margin-top="0"
     showborder="true"
     showgrid="false"
     inkscape:current-layer="layer1"
     inkscape:document-units="px"
     inkscape:cy="91.133759"
     inkscape:cx="142.66401"
     inkscape:zoom="4"
     inkscape:pageshadow="2"
     inkscape:pageopacity="0.0"
     borderopacity="1.0"
     bordercolor="#666666"
     pagecolor="#ffffff"
     id="base"
     inkscape:snap-bbox="true"
     inkscape:bbox-paths="true"
     inkscape:bbox-nodes="true"
     inkscape:snap-bbox-edge-midpoints="true"
     inkscape:snap-bbox-midpoints="true"
     inkscape:object-paths="true"
     inkscape:snap-intersection-paths="true"
     inkscape:object-nodes="true"
     inkscape:snap-global="true" />
  <metadata
     id="metadata7">
    <rdf:RDF>
      <cc:Work
         rdf:about="">
        <dc:format>image/svg+xml</dc:format>
        <dc:type
           rdf:resource="http://purl.org/dc/dcmitype/StillImage" />
        <dc:title></dc:title>
      </cc:Work>
    </rdf:RDF>
  </metadata>
  <g
     inkscape:label="Layer 1"
     inkscape:groupmode="layer"
     id="layer1"
     transform="translate(146.80188,-2349.7019)">
    <rect
       style="fill:#f9f9f9;fill-opacity:1;stroke:none;stroke-width:1.5;stroke-linecap:round;stroke-linejoin:round;stroke-miterlimit:4;stroke-dasharray:none;stroke-dashoffset:0;stroke-opacity:1"
       id="rect5208"
       width="481.12473"
       height="250.58601"
       x="-143.61424"
       y="2351.3926" />
    <path
       d="m -143.61424,2351.3925 0,250.5858 m 10.02343,-250.5858 0,250.5858 m 10.02343,-250.5858 0,250.5858 m 10.02343,-250.5858 0,250.5858 m 10.02343,-250.5858 0,250.5858 m 10.023434,-250.5858 0,250.5858 m 10.023431,-250.5858 0,250.5858 m 10.023431,-250.5858 0,250.5858 m 10.023432,-250.5858 0,250.5858 m 10.023431,-250.5858 0,250.5858 m 10.023432,-250.5858 0,250.5858 m 10.023431,-250.5858 0,250.5858 m 10.023431,-250.5858 0,250.5858 m 10.023432,-250.5858 0,250.5858 m 10.0234311,-250.5858 0,250.5858 m 10.0234314,-250.5858 0,250.5858 m 10.0234315,-250.5858 0,250.5858 m 10.023431,-250.5858 0,250.5858 m 10.023432,-250.5858 0,250.5858 m 10.023431,-250.5858 0,250.5858 m 10.023431,-250.5858 0,250.5858 m 10.023432,-250.5858 0,250.5858 m 10.023431,-250.5858 0,250.5858 m 10.023432,-250.5858 0,250.5858 m 10.023431,-250.5858 0,250.5858 m 10.02343,-250.5858 0,250.5858 m 10.02344,-250.5858 0,250.5858 m 10.02342,-250.5858 0,250.5858 m 10.02344,-250.5858 0,250.5858 m 10.02342,-250.5858 0,250.5858 m 10.02344,-250.5858 0,250.5858 m 10.02343,-250.5858 0,250.5858 m 10.02343,-250.5858 0,250.5858 m 10.02343,-250.5858 0,250.5858 m 10.02343,-250.5858 0,250.5858 m 10.02344,-250.5858 0,250.5858 m 10.02343,-250.5858 0,250.5858 m 10.02343,-250.5858 0,250.5858 m 10.02343,-250.5858 0,250.5858 m 10.02343,-250.5858 0,250.5858 m 10.02343,-250.5858 0,250.5858 m 10.02344,-250.5858 0,250.5858 m 10.02342,-250.5858 0,250.5858 m 10.02344,-250.5858 0,250.5858 m 10.02342,-250.5858 0,250.5858 m 10.02344,-250.5858 0,250.5858 m 10.02343,-250.5858 0,250.5858 m 10.02343,-250.5858 0,250.5858 m 10.02344,-250.5858 0,250.5858 m -481.12471,-250.5858 481.12471,0 m -481.12471,10.0234 481.06735,0 m -481.06735,10.0235 481.12471,0 m -481.12471,10.0234 481.12471,0 m -481.12471,10.0234 481.12471,0 m -481.12471,10.0234 481.12471,0 m -481.12471,10.0235 481.12471,0 m -481.12471,10.0234 481.12471,0 m -481.12471,10.0234 481.12471,0 m -481.12471,10.0235 481.12471,0 m -481.12471,10.0235 481.12471,0 m -481.12471,10.0234 481.12471,0 m -481.12471,10.0234 481.12471,0 m -481.12471,10.0234 481.12471,0 m -481.12471,10.0235 481.12471,0 m -481.12471,10.0234 481.12471,0 m -481.12471,10.0234 481.12471,0 m -481.12471,10.0234 481.12471,0 m -481.12471,10.0235 481.12471,0 m -481.12471,10.0234 481.12471,0 m -481.12471,10.0234 481.12471,0 m -481.12471,10.0234 481.12471,0 m -481.12471,10.0235 481.12471,0 m -481.12471,10.0234 481.12471,0 m -481.12471,10.0234 481.12471,0 m -481.12471,10.0235 481.12471,0"
       style="fill:#e6e6e6;fill-opacity:0.75;fill-rule:evenodd;stroke:#e6e6e6;stroke-width:0.10023432pt;stroke-linecap:butt;stroke-linejoin:miter;stroke-opacity:1"
       id="path10407"
       inkscape:connector-curvature="0"
       sodipodi:nodetypes="cccccccccccccccccccccccccccccccccccccccccccccccccccccccccccccccccccccccccccccccccccccccccccccccccccccccccccccccccccccccccccccccccccccccccccccccccccccc" />
    <path
       inkscape:connector-curvature="0"
       style="fill:#0000ff;stroke:none;stroke-width:0.72671384;stroke-miterlimit:4;stroke-dasharray:none;stroke-opacity:1"
       d="m 241.42613,2572.348 c -0.11105,-0.1111 -0.20188,-0.9967 -0.20188,-1.9682 l 0,-1.7663 0.95073,0 c 1.24641,0 1.75289,0.7168 1.76482,2.4981 l 0.01,1.4382 -1.1607,0 c -0.63841,0 -1.25159,-0.091 -1.36259,-0.2018 z"
       id="path10707" />
    <path
       inkscape:connector-curvature="0"
       style="fill:#0000ff;stroke:none;stroke-width:0.72671384;stroke-miterlimit:4;stroke-dasharray:none;stroke-opacity:1"
       d="m -6.2600904,2563.8444 c 0.105805,-0.791 0.3075863,-1.4837 0.4484017,-1.5392 0.1408155,-0.055 0.2560314,-0.5665 0.2560314,-1.1355 0,-1.0111 0.028411,-1.0345 1.2549739,-1.0345 l 1.2549765,0 -0.1836353,1.9664 c -0.2528866,2.7082 -0.5544636,3.1811 -2.02838,3.1811 l -1.1947438,0 z"
       id="path10705" />
    <path
       inkscape:connector-curvature="0"
       style="fill:#0000ff;stroke:none;stroke-width:0.72671384;stroke-miterlimit:4;stroke-dasharray:none;stroke-opacity:1"
       d="m 176.18316,2558.7689 c -0.98371,-0.4273 -0.99802,-0.4618 -0.90838,-2.1834 l 0.091,-1.7493 1.11854,-0.093 c 1.0727,-0.089 1.12711,-0.046 1.32792,1.0232 0.13544,0.7219 0.40875,1.1683 0.77395,1.2637 0.41057,0.1074 0.56457,0.4271 0.56457,1.1722 0,0.9563 -0.0654,1.0237 -0.9841,1.0126 -0.54123,-0.01 -1.43383,-0.2073 -1.98352,-0.446 z"
       id="path10703" />
    <path
       inkscape:connector-curvature="0"
       style="fill:#0000ff;stroke:none;stroke-width:0.72671384;stroke-miterlimit:4;stroke-dasharray:none;stroke-opacity:1"
       d="m -67.783093,2554.3063 c -0.128535,-0.7078 -0.248669,-1.9683 -0.266969,-2.8009 l -0.03327,-1.514 1.286889,-0.093 c 1.195451,-0.087 1.28689,-0.039 1.28689,0.6634 0,0.4162 0.110382,0.8248 0.245301,0.9081 0.412524,0.255 0.410855,2.8394 -0.0022,3.5009 -0.257627,0.4126 -0.708107,0.6224 -1.335801,0.6224 -0.875693,0 -0.9647,-0.097 -1.180782,-1.2868 z"
       id="path10701" />
    <path
       inkscape:connector-curvature="0"
       style="fill:#0000ff;stroke:none;stroke-width:0.72671384;stroke-miterlimit:4;stroke-dasharray:none;stroke-opacity:1"
       d="m 118.48298,2549.4755 c -0.10242,-0.3824 -0.18809,-1.4107 -0.19036,-2.2849 l -0.004,-1.5898 1.05979,0 c 0.90518,0 1.05979,0.1021 1.05979,0.6991 0,0.6416 0.8768,2.2127 0.89876,1.6106 0.005,-0.1453 0.18478,-0.1188 0.39886,0.059 0.21408,0.1777 0.37303,0.7054 0.35323,1.1725 -0.0345,0.8128 -0.10866,0.8535 -1.71286,0.9392 -1.52914,0.082 -1.69326,0.029 -1.86308,-0.6055 z"
       id="path10699" />
    <path
       inkscape:connector-curvature="0"
       style="fill:#0000ff;stroke:none;stroke-width:0.72671384;stroke-miterlimit:4;stroke-dasharray:none;stroke-opacity:1"
       d="m 302.38932,2542.2701 c 0,-1.4954 0.0118,-1.5141 0.95074,-1.5141 1.14757,0 1.75168,0.6998 1.76483,2.044 0.01,0.9659 -0.0155,0.9841 -1.35298,0.9841 l -1.36259,0 z"
       id="path10697" />
    <path
       inkscape:connector-curvature="0"
       style="fill:#0000ff;stroke:none;stroke-width:0.72671384;stroke-miterlimit:4;stroke-dasharray:none;stroke-opacity:1"
       d="m 59.318691,2537.5343 c -0.208174,-0.088 -0.378496,-0.625 -0.378496,-1.194 0,-0.9805 0.05539,-1.0346 1.05979,-1.0346 0.857925,0 1.059792,-0.1154 1.059792,-0.6056 0,-0.4918 0.201863,-0.6055 1.074899,-0.6055 l 1.074904,0 -0.09081,1.741 -0.09081,1.7411 -1.665387,0.059 c -0.915961,0.033 -1.83571,-0.013 -2.043882,-0.1009 z"
       id="path10695" />
    <path
       inkscape:connector-curvature="0"
       style="fill:#0000ff;stroke:none;stroke-width:0.72671384;stroke-miterlimit:4;stroke-dasharray:none;stroke-opacity:1"
       d="m 243.34382,2532.5998 c 0,-0.4403 -0.24526,-0.6101 -0.98408,-0.6814 -0.90472,-0.087 -0.9841,-0.1802 -0.9841,-1.1547 0,-0.9454 0.0951,-1.0706 0.88187,-1.1602 0.48503,-0.055 1.16632,0.039 1.51399,0.2114 0.34768,0.1716 0.90464,0.3543 1.23771,0.4062 0.49109,0.076 0.62304,0.3654 0.69789,1.5296 l 0.0923,1.4355 -1.22779,0 c -1.01252,0 -1.22779,-0.1029 -1.22779,-0.5864 z"
       id="path10693" />
    <path
       inkscape:connector-curvature="0"
       style="fill:#0000ff;stroke:none;stroke-width:0.72671384;stroke-miterlimit:4;stroke-dasharray:none;stroke-opacity:1"
       d="m -3.5967109,2524.1779 c 0.1142999,-0.4579 0.3891651,-1.037 0.6108151,-1.2868 0.2216473,-0.2498 0.4494844,-0.7949 0.5063016,-1.2112 0.086075,-0.6308 0.2894231,-0.7726 1.2189971,-0.8499 1.34500395,-0.1118 1.85412505,0.574 1.56792571,2.112 -0.25505455,1.3706 -1.18002819,2.0537 -2.79214091,2.0619 -1.2892339,0.01 -1.314916,-0.013 -1.1118986,-0.826 z"
       id="path10691" />
    <path
       inkscape:connector-curvature="0"
       style="fill:#0000ff;stroke:none;stroke-width:0.72671384;stroke-miterlimit:4;stroke-dasharray:none;stroke-opacity:1"
       d="m 181.48199,2522.3521 c -0.28292,-0.3127 -0.51444,-0.8372 -0.51444,-1.1654 0,-0.3282 -0.14689,-0.7438 -0.32646,-0.9234 -0.17955,-0.1796 -0.28174,-0.7178 -0.2271,-1.196 0.0883,-0.7723 0.21754,-0.8696 1.15468,-0.8696 0.96527,0 1.11516,0.1261 1.75729,1.4787 0.94872,1.9982 0.81547,3.0342 -0.40568,3.1536 -0.60663,0.059 -1.1005,-0.1048 -1.43829,-0.4779 z"
       id="path10689" />
    <path
       inkscape:connector-curvature="0"
       style="fill:#0000ff;stroke:none;stroke-width:0.72671384;stroke-miterlimit:4;stroke-dasharray:none;stroke-opacity:1"
       d="m 119.60624,2512.0903 c -0.68431,-0.141 -1.00394,-0.8804 -1.01082,-2.3383 l -0.004,-0.8759 1.87923,0.1964 c 1.03357,0.108 1.99668,0.3138 2.14024,0.4575 0.14355,0.1435 0.21765,0.7899 0.16465,1.4364 -0.0939,1.1452 -0.12736,1.1764 -1.30755,1.2167 -0.66615,0.023 -1.50387,-0.019 -1.86161,-0.093 z"
       id="path10687" />
    <path
       inkscape:connector-curvature="0"
       style="fill:#0000ff;stroke:none;stroke-width:0.72671384;stroke-miterlimit:4;stroke-dasharray:none;stroke-opacity:1"
       d="m -65.397277,2504.4203 -1.098915,0 0.213952,-2.1952 c 0.117672,-1.2074 0.339668,-2.2407 0.49332,-2.2961 0.153653,-0.055 0.279371,-0.277 0.279371,-0.492 0,-0.4142 1.291569,-0.7697 2.79542,-0.7697 0.698961,0 0.861421,0.1081 0.719145,0.4789 -0.101089,0.2635 -0.183794,0.8128 -0.183794,1.2207 0,0.4301 -0.222653,0.8239 -0.529895,0.9372 -0.723684,0.267 -0.973987,0.6959 -0.979457,1.678 z"
       id="path10685" />
    <path
       inkscape:connector-curvature="0"
       style="fill:#0000ff;stroke:none;stroke-width:0.72671384;stroke-miterlimit:4;stroke-dasharray:none;stroke-opacity:1"
       d="m 309.02855,2504.5131 c -0.17053,-0.4485 -0.26936,-1.2321 -0.21958,-1.7411 0.0831,-0.8497 0.19229,-0.9328 1.33529,-1.0164 1.22735,-0.09 1.24745,-0.075 1.43495,1.0598 0.3891,2.3544 0.32445,2.5134 -1.02186,2.5134 -1.04468,0 -1.26293,-0.1165 -1.5288,-0.8157 z"
       id="path10683" />
    <path
       inkscape:connector-curvature="0"
       style="fill:#0000ff;stroke:none;stroke-width:0.72671384;stroke-miterlimit:4;stroke-dasharray:none;stroke-opacity:1"
       d="m 56.835809,2499.1398 c -0.198965,-0.2398 -0.317844,-0.8189 -0.264175,-1.2869 0.07743,-0.6754 0.232702,-0.8324 0.752049,-0.7608 0.359958,0.049 0.742711,-0.053 0.850562,-0.2271 0.107853,-0.1746 0.73309,-0.3173 1.389414,-0.3173 1.179871,0 1.19332,0.013 1.19332,1.1506 0,0.6329 -0.16351,1.3142 -0.363357,1.514 -0.516342,0.5164 -3.113024,0.4635 -3.557813,-0.073 z"
       id="path10681" />
    <path
       inkscape:connector-curvature="0"
       style="fill:#0000ff;stroke:none;stroke-width:0.72671384;stroke-miterlimit:4;stroke-dasharray:none;stroke-opacity:1"
       d="m 243.96009,2492.0256 c -0.1724,-0.3221 -0.31346,-1.0109 -0.31346,-1.5305 0,-0.9383 0.01,-0.9444 1.43828,-0.8526 l 1.43829,0.092 0.0923,1.4382 0.0923,1.4383 -1.21712,0 c -0.89342,0 -1.30047,-0.1558 -1.53057,-0.5857 z"
       id="path10679" />
    <path
       inkscape:connector-curvature="0"
       style="fill:#0000ff;stroke:none;stroke-width:0.72671384;stroke-miterlimit:4;stroke-dasharray:none;stroke-opacity:1"
       d="m 178.94652,2483.1088 c -0.69522,-0.9053 -1.64904,-1.8297 -2.11958,-2.0541 -0.68743,-0.328 -0.87449,-0.6391 -0.952,-1.5833 l -0.0965,-1.175 1.45904,0.1625 c 1.31466,0.1464 1.62681,0.3444 3.15391,2.001 1.58522,1.7195 1.68296,1.9126 1.51042,2.9829 -0.15068,0.9348 -0.3224,1.1597 -0.93788,1.2282 -0.6001,0.067 -1.0106,-0.2511 -2.01745,-1.5622 z"
       id="path10677" />
    <path
       inkscape:connector-curvature="0"
       style="fill:#0000ff;stroke:none;stroke-width:0.72671384;stroke-miterlimit:4;stroke-dasharray:none;stroke-opacity:1"
       d="m 119.55836,2476.0899 c -0.5248,-0.3708 -0.67526,-0.7306 -0.60559,-1.4485 0.078,-0.8033 0.23269,-0.9709 0.97457,-1.0555 0.48502,-0.055 1.16631,0.044 1.51398,0.2209 0.34768,0.1768 1.0159,0.4604 1.48493,0.6306 0.69511,0.252 0.83508,0.4631 0.757,1.1417 -0.0901,0.7833 -0.19422,0.8376 -1.76119,0.9183 -1.16353,0.06 -1.87582,-0.063 -2.3637,-0.4075 z"
       id="path10675" />
    <path
       inkscape:connector-curvature="0"
       style="fill:#0000ff;stroke:none;stroke-width:0.72671384;stroke-miterlimit:4;stroke-dasharray:none;stroke-opacity:1"
       d="m 306.65269,2468.2813 c -0.20953,-0.3915 -0.33475,-1.0387 -0.27826,-1.4382 0.0823,-0.5825 0.31013,-0.7463 1.14911,-0.8261 1.25524,-0.1194 1.83013,0.5007 1.83013,1.9742 0,0.9597 -0.049,1.0019 -1.16001,1.0019 -0.90781,0 -1.24288,-0.1548 -1.54097,-0.7118 z"
       id="path10673" />
    <path
       inkscape:connector-curvature="0"
       style="fill:#0000ff;stroke:none;stroke-width:0.72671384;stroke-miterlimit:4;stroke-dasharray:none;stroke-opacity:1"
       d="m 58.637397,2460.6662 0,-1.3625 2.119582,0 2.119582,0 0,1.0597 c 0,0.9217 -0.09627,1.0597 -0.739124,1.0597 -0.406516,0 -0.823335,0.1364 -0.926261,0.3029 -0.102928,0.1664 -0.724134,0.3028 -1.380461,0.3028 l -1.193318,0 z"
       id="path10671" />
    <path
       inkscape:connector-curvature="0"
       style="fill:#0000ff;stroke:none;stroke-width:0.72671384;stroke-miterlimit:4;stroke-dasharray:none;stroke-opacity:1"
       d="m 184.29833,2446.9719 c -0.2498,-0.095 -0.56316,-0.3562 -0.69634,-0.5816 -0.13318,-0.2254 -0.44759,-0.4098 -0.69869,-0.4098 -0.34988,0 -0.43482,-0.3007 -0.36345,-1.2869 0.0904,-1.2497 0.12599,-1.2895 1.23103,-1.3811 0.83461,-0.068 1.18864,0.039 1.32819,0.4018 0.10465,0.2727 0.51231,0.6182 0.90594,0.768 0.58878,0.2237 0.7157,0.4881 0.7157,1.4907 0,1.178 -0.0329,1.2179 -0.98409,1.1948 -0.54123,-0.013 -1.18847,-0.1013 -1.43829,-0.1959 z"
       id="path10669" />
    <path
       inkscape:connector-curvature="0"
       style="fill:#0000ff;stroke:none;stroke-width:0.72671384;stroke-miterlimit:4;stroke-dasharray:none;stroke-opacity:1"
       d="m 122.30056,2436.7932 c -1.2732,-0.3124 -1.28689,-0.33 -1.28689,-1.6592 l 0,-1.3437 1.89249,0.2114 c 1.04085,0.1162 2.02192,0.3382 2.18012,0.4933 0.15823,0.155 0.53293,0.282 0.8327,0.282 0.41746,0 0.54504,0.2399 0.54504,1.0244 0,0.8066 -0.14499,1.0635 -0.6813,1.2071 -0.88506,0.2371 -1.89146,0.1749 -3.48216,-0.2153 z"
       id="path10667" />
    <path
       inkscape:connector-curvature="0"
       style="fill:#0000ff;stroke:none;stroke-width:0.72671384;stroke-miterlimit:4;stroke-dasharray:none;stroke-opacity:1"
       d="m 14.630837,2432.7583 c -0.409229,-0.4092 -0.210747,-1.9177 0.252332,-1.9177 0.249808,0 0.454196,-0.1363 0.454196,-0.3028 2.902919,-1.8514 3.196722,3.7384 -0.706528,2.2205 z"
       id="path10665" />
    <path
       inkscape:connector-curvature="0"
       style="fill:#0000ff;stroke:none;stroke-width:0.72671384;stroke-miterlimit:4;stroke-dasharray:none;stroke-opacity:1"
       d="m 59.142058,2422.4623 c -0.111025,-0.111 -0.201863,-0.7241 -0.201863,-1.3626 l 0,-1.1607 2.573778,0 2.573777,0 0,0.9507 c 0,0.5504 -0.223156,1.1201 -0.529895,1.353 -0.544781,0.4135 -4.047658,0.5877 -4.415797,0.2196 z"
       id="path10663" />
    <path
       inkscape:connector-curvature="0"
       style="fill:#0000ff;stroke:none;stroke-width:0.72671384;stroke-miterlimit:4;stroke-dasharray:none;stroke-opacity:1"
       d="m 183.78258,2408.3326 c -1.09193,-0.5636 -1.27478,-0.7967 -1.28689,-1.641 -0.0135,-0.9491 0.0289,-0.984 1.20131,-0.984 1.79365,0 3.31793,1.0765 3.32277,2.3466 0.004,0.9142 -0.0661,0.9824 -0.98036,0.9597 -0.54124,-0.013 -1.55681,-0.32 -2.25683,-0.6813 z"
       id="path10661" />
    <path
       inkscape:connector-curvature="0"
       style="fill:#0000ff;stroke:none;stroke-width:0.72671384;stroke-miterlimit:4;stroke-dasharray:none;stroke-opacity:1"
       d="m 123.03232,2398.5413 c -0.11103,-0.111 -0.20187,-0.5879 -0.20187,-1.0597 0,-0.8277 0.0534,-0.858 1.51399,-0.858 l 1.51399,0 0,1.0598 c 0,1.0481 -0.0144,1.0599 -1.31213,1.0599 -0.72167,0 -1.40295,-0.091 -1.51398,-0.202 z"
       id="path10659" />
    <path
       inkscape:connector-curvature="0"
       style="fill:#0000ff;stroke:none;stroke-width:0.72671384;stroke-miterlimit:4;stroke-dasharray:none;stroke-opacity:1"
       d="m 245.69966,2373.9004 c -0.0744,-0.5069 -0.0218,-0.9918 0.11703,-1.0776 0.47977,-0.2966 0.24994,-0.7258 -0.38858,-0.7258 -0.51688,0 -0.60559,-0.1319 -0.45834,-0.6813 0.10044,-0.3748 0.18442,-0.8516 0.1867,-1.0598 0.006,-0.5288 2.0594,-0.4861 2.59955,0.053 0.28715,0.2872 0.43256,1.1016 0.43256,2.4225 l 0,1.9897 -1.17682,0 c -1.07986,0 -1.18796,-0.075 -1.3121,-0.9217 z"
       id="path10657" />
    <path
       inkscape:connector-curvature="0"
       style="fill:#0000ff;stroke:none;stroke-width:0.72671384;stroke-miterlimit:4;stroke-dasharray:none;stroke-opacity:1"
       d="m 184.60112,2370.9958 c 0,-0.8845 0.0996,-1.0184 0.75699,-1.0184 0.55514,0 0.757,-0.1616 0.757,-0.6056 0,-0.5112 0.20188,-0.6056 1.29576,-0.6056 0.94838,0 1.41276,0.1624 1.73222,0.6056 0.24008,0.3331 0.61079,0.6056 0.82385,0.6056 0.23783,0 0.38734,0.3931 0.38734,1.0184 l 0,1.0186 -2.87657,0 -2.87659,0 z"
       id="path5158" />
    <path
       inkscape:connector-curvature="0"
       style="fill:#ff0000;stroke:none;stroke-width:0.72671384;stroke-miterlimit:4;stroke-dasharray:none"
       d="m -110.37451,2533.8675 c 0.0141,-1.6682 0.5462,-2.2144 1.93726,-1.9888 1.07534,0.1747 1.12897,0.2354 0.95867,1.0868 -0.0992,0.4962 -0.18038,1.1575 -0.18038,1.4696 0,0.4711 -0.23214,0.5679 -1.36258,0.5679 l -1.36259,0 0.01,-1.1355 z"
       id="path10865" />
    <path
       inkscape:connector-curvature="0"
       style="fill:#ff0000;stroke:none;stroke-width:0.72671384;stroke-miterlimit:4;stroke-dasharray:none"
       d="m -104.12632,2534.1954 c -0.3926,-0.3925 -0.21673,-2.2204 0.21363,-2.2204 0.25061,0 0.49237,-0.4807 0.60917,-1.2113 0.1887,-1.18 0.22497,-1.2111 1.4108,-1.2111 1.28457,0 1.894247,0.6362 1.23831,1.2921 -0.18865,0.1887 -0.343,0.7624 -0.343,1.2749 0,1.3916 -0.75277,2.2777 -1.93489,2.2777 -0.54569,0 -1.083,-0.091 -1.19402,-0.2019 z"
       id="path10863" />
    <path
       inkscape:connector-curvature="0"
       style="fill:#ff0000;stroke:none;stroke-width:0.72671384;stroke-miterlimit:4;stroke-dasharray:none"
       d="m -84.209179,2524.0265 c 0.04901,-1.8735 0.189813,-3.7812 0.312966,-4.2391 0.201126,-0.7479 0.359161,-0.8327 1.553664,-0.8327 0.73137,0 1.323832,0.1022 1.31658,0.2271 -0.0069,0.1249 -0.125756,0.8091 -0.263335,1.5205 -0.137581,0.7113 -0.160136,1.3491 -0.05014,1.417 0.408471,0.2524 0.333135,2.3616 -0.116551,3.2631 -0.255849,0.5128 -0.465189,1.184 -0.465189,1.4916 0,0.4486 -0.234828,0.559 -1.188535,0.559 l -1.188533,0 z"
       id="path10861" />
    <path
       inkscape:connector-curvature="0"
       style="fill:#ff0000;stroke:none;stroke-width:0.72671384;stroke-miterlimit:4;stroke-dasharray:none"
       d="m -102.8142,2526.1275 c 0,-0.5841 0.25278,-1.2739 0.6056,-1.6527 0.33307,-0.3576 0.60992,-0.8942 0.61522,-1.1926 0.0177,-0.9993 0.75455,-1.6023 1.957923,-1.6023 l 1.143805,0 -0.197149,1.741 c -0.141039,1.2457 -0.368327,1.8593 -0.798688,2.1566 -0.330843,0.2285 -0.601541,0.6713 -0.601541,0.9841 0,0.4721 -0.23136,0.5686 -1.36259,0.5686 -1.34059,0 -1.36258,-0.017 -1.36258,-1.0027 z"
       id="path10859" />
    <path
       inkscape:connector-curvature="0"
       style="fill:#ff0000;stroke:none;stroke-width:0.72671384;stroke-miterlimit:4;stroke-dasharray:none"
       d="m -58.995093,2524.8232 c -0.252342,-0.2524 -0.286117,-1.3979 -0.05869,-1.9905 0.107748,-0.2807 0.543858,-0.3738 1.378878,-0.2943 1.201742,0.1147 1.219815,0.1342 1.129301,1.2187 -0.08534,1.0223 -0.169479,1.1087 -1.162605,1.1922 -0.588837,0.049 -1.167938,-0.01 -1.286889,-0.1261 z"
       id="path10857" />
    <path
       inkscape:connector-curvature="0"
       style="fill:#ff0000;stroke:none;stroke-width:0.72671384;stroke-miterlimit:4;stroke-dasharray:none"
       d="m -94.033073,2516.7173 c 0,-0.2313 -0.238454,-0.4016 -0.529897,-0.3785 -0.368868,0.03 -0.559549,-0.2164 -0.627476,-0.8089 -0.131636,-1.1481 0.418326,-1.7228 1.64864,-1.7228 0.820855,0 1.022717,0.1196 1.022717,0.6056 0,0.4037 0.201872,0.6056 0.605597,0.6056 0.490243,0 0.605596,0.2019 0.605596,1.0597 0,1.0542 -0.0069,1.0599 -1.362592,1.0599 -0.960872,0 -1.362585,-0.1239 -1.362585,-0.4206 z"
       id="path10855" />
    <path
       inkscape:connector-curvature="0"
       style="fill:#ff0000;stroke:none;stroke-width:0.72671384;stroke-miterlimit:4;stroke-dasharray:none"
       d="m -68.900886,2513.5424 c 0,-1.1902 1.726818,-3.0661 2.822375,-3.0661 0.761899,0 0.811195,0.084 0.811195,1.3898 0,1.7068 -0.80239,2.5215 -2.498079,2.5365 -1.051095,0.01 -1.135491,-0.054 -1.135491,-0.8602 z"
       id="path10853" />
    <path
       inkscape:connector-curvature="0"
       style="fill:#ff0000;stroke:none;stroke-width:0.72671384;stroke-miterlimit:4;stroke-dasharray:none"
       d="m -101.17965,2512.7761 c -0.0897,-0.2338 -0.11957,-0.8811 -0.0661,-1.4382 0.0917,-0.9573 0.16776,-1.0181 1.383923,-1.106 l 1.286887,-0.093 0,1.5313 0,1.5315 -1.220696,0 c -0.768964,0 -1.281094,-0.1575 -1.383914,-0.4255 z"
       id="path10851" />
    <path
       inkscape:connector-curvature="0"
       style="fill:#ff0000;stroke:none;stroke-width:0.72671384;stroke-miterlimit:4;stroke-dasharray:none"
       d="m -85.554751,2512.4445 c 0,-0.4163 -0.136252,-0.7569 -0.302789,-0.7569 -0.166547,0 -0.302799,-0.2726 -0.302799,-0.6057 0,-0.333 -0.145439,-0.6056 -0.323203,-0.6056 -0.185406,0 -0.241256,-0.2582 -0.130994,-0.6055 0.149898,-0.4723 0.05439,-0.6056 -0.433795,-0.6056 -0.49667,0 -0.626001,-0.1918 -0.626001,-0.9283 0,-1.5545 0.474447,-2.0997 1.827444,-2.0997 1.132059,0 1.200533,0.052 1.200533,0.9083 0,0.6348 0.147478,0.9084 0.489514,0.9084 0.33762,0 0.441202,0.1848 0.333829,0.5954 -0.100502,0.3843 0.123162,0.8742 0.630989,1.382 0.666349,0.6664 0.731075,0.8758 0.423167,1.3688 -0.199937,0.32 -0.363507,0.8564 -0.363507,1.1917 0,0.5095 -0.199148,0.6098 -1.211195,0.6098 -1.09007,0 -1.211193,-0.076 -1.211193,-0.7571 z"
       id="path10849" />
    <path
       inkscape:connector-curvature="0"
       style="fill:#ff0000;stroke:none;stroke-width:0.72671384;stroke-miterlimit:4;stroke-dasharray:none"
       d="m -35.674096,2509.1895 c 0.09034,-0.7078 0.210635,-1.3407 0.267328,-1.4063 0.05669,-0.066 0.78737,-0.1853 1.623723,-0.2658 1.515342,-0.1456 1.520647,-0.1429 1.520647,0.7481 0,1.2314 -1.102587,2.2108 -2.488781,2.2108 l -1.087164,0 z"
       id="path10847" />
    <path
       inkscape:connector-curvature="0"
       style="fill:#ff0000;stroke:none;stroke-width:0.72671384;stroke-miterlimit:4;stroke-dasharray:none"
       d="m -63.737506,2503.8148 0.924217,0 -0.09152,1.5897 -0.09152,1.5897 -1.438287,0.092 -1.438288,0.092 0,-1.0764 c 0,-0.592 0.13626,-1.0764 0.302798,-1.0764 0.166538,0 0.302798,-0.1362 0.302798,-0.3028 z"
       id="path10845" />
    <path
       inkscape:connector-curvature="0"
       style="fill:#ff0000;stroke:none;stroke-width:0.72671384;stroke-miterlimit:4;stroke-dasharray:none"
       d="m -33.549474,2504.2116 c -0.399934,-0.1045 -0.486656,-0.3375 -0.353207,-0.9489 0.314008,-1.4388 0.426886,-1.633 0.85361,-1.4693 0.388332,0.149 1.695067,-0.9337 1.695067,-1.4046 0,-0.1141 -0.358366,-0.2076 -0.796374,-0.2076 -0.766019,0 -0.790453,-0.053 -0.641101,-1.3775 0.0854,-0.7576 0.230192,-1.4525 0.321771,-1.544 0.09157,-0.092 0.720719,-0.073 1.398098,0.041 1.158973,0.1958 1.231594,0.2691 1.231594,1.2413 0,0.8313 0.118324,1.0332 0.605595,1.0332 1.481745,0 -0.01439,3.9141 -1.748062,4.5734 -0.738036,0.2805 -1.647807,0.3027 -2.566991,0.062 z"
       id="path10843" />
    <path
       inkscape:connector-curvature="0"
       style="fill:#ff0000;stroke:none;stroke-width:0.72671384;stroke-miterlimit:4;stroke-dasharray:none"
       d="m -88.986452,2503.6129 c -0.111025,-0.1109 -0.201863,-0.6561 -0.201863,-1.2111 0,-0.8075 -0.121123,-1.0093 -0.605597,-1.0093 -0.65108,0 -0.741884,-0.454 -0.416348,-2.0818 0.146594,-0.7329 0.347338,-0.9462 0.890525,-0.9462 0.385698,0 0.785485,-0.1363 0.888416,-0.3029 0.305028,-0.4935 2.573779,-0.3774 2.573779,0.1317 0,0.9817 -0.609294,1.9879 -1.203699,1.9879 -0.337196,0 -0.613093,0.1131 -0.613093,0.2512 0,0.1381 0.306591,0.2403 0.681297,0.2271 0.801647,-0.029 1.050798,1.0282 0.551916,2.3404 -0.25146,0.6614 -0.501383,0.8149 -1.326644,0.8149 -0.559254,0 -1.107664,-0.091 -1.218689,-0.2019 z"
       id="path10841" />
    <path
       inkscape:connector-curvature="0"
       style="fill:#ff0000;stroke:none;stroke-width:0.72671384;stroke-miterlimit:4;stroke-dasharray:none"
       d="m -59.084985,2503.4046 c -0.09436,-0.2459 -0.127321,-0.8333 -0.07326,-1.3053 0.08897,-0.7769 0.221894,-0.8672 1.403473,-0.9523 l 1.305192,-0.094 -0.094,1.3053 c -0.09152,1.2706 -0.124089,1.3075 -1.231928,1.3992 -0.789658,0.065 -1.190425,-0.042 -1.30947,-0.3529 z"
       id="path10839" />
    <path
       inkscape:connector-curvature="0"
       style="fill:#ff0000;stroke:none;stroke-width:0.72671384;stroke-miterlimit:4;stroke-dasharray:none"
       d="m -40.135129,2502.3187 c 0,-0.1566 0.13626,-0.3691 0.302798,-0.472 0.166538,-0.103 0.302797,-0.6561 0.302797,-1.2291 0,-1.0137 0.03279,-1.0419 1.21119,-1.0419 1.149673,0 1.21119,0.046 1.21119,0.9283 0,1.5545 -0.474441,2.0996 -1.827439,2.0996 -0.660295,0 -1.200536,-0.1282 -1.200536,-0.2849 z"
       id="path10837" />
    <path
       inkscape:connector-curvature="0"
       style="fill:#ff0000;stroke:none;stroke-width:0.72671384;stroke-miterlimit:4;stroke-dasharray:none"
       d="m -85.251952,2499.7667 c 0,-0.9437 0.08519,-1.0343 1.135494,-1.2079 0.624517,-0.1032 1.578335,-0.1892 2.11958,-0.1911 0.916194,0 0.984095,0.067 0.984095,1.0169 0,0.9437 -0.08519,1.0342 -1.135494,1.2079 -0.624518,0.1032 -1.578328,0.1892 -2.119581,0.1911 -0.916194,0 -0.984094,-0.067 -0.984094,-1.0169 z"
       id="path10835" />
    <path
       inkscape:connector-curvature="0"
       style="fill:#ff0000;stroke:none;stroke-width:0.72671384;stroke-miterlimit:4;stroke-dasharray:none"
       d="m -31.959599,2495.8277 c 0,-1.2696 0.571455,-1.7723 1.872705,-1.6474 0.84709,0.082 1.01911,0.2293 1.10145,0.9474 0.13606,1.1866 -0.424157,1.7227 -1.800039,1.7227 -1.131874,0 -1.174116,-0.036 -1.174116,-1.0227 z"
       id="path10833" />
    <path
       inkscape:connector-curvature="0"
       style="fill:#ff0000;stroke:none;stroke-width:0.72671384;stroke-miterlimit:4;stroke-dasharray:none"
       d="m -66.882236,2496.3459 c -0.339606,-0.3397 -0.206097,-1.7355 0.219643,-2.2963 0.404596,-0.533 2.448424,-0.7631 2.689839,-0.3028 0.06552,0.1249 -0.0027,0.8062 -0.151345,1.514 -0.260381,1.239 -0.313066,1.2869 -1.413369,1.2869 -0.628597,0 -1.233744,-0.091 -1.344768,-0.2018 z"
       id="path10831" />
    <path
       inkscape:connector-curvature="0"
       style="fill:#ff0000;stroke:none;stroke-width:0.72671384;stroke-miterlimit:4;stroke-dasharray:none"
       d="m -23.279407,2494.8319 c -0.449183,-0.4492 -0.154353,-1.7069 0.63083,-2.6909 0.642088,-0.8048 1.057955,-1.0436 1.816784,-1.0436 0.938196,-1e-4 0.984092,0.053 0.984092,1.1545 0,0.8697 -0.209529,1.3553 -0.849263,1.9682 -0.792396,0.759 -2.120446,1.0738 -2.582443,0.6118 z"
       id="path10829" />
    <path
       inkscape:connector-curvature="0"
       style="fill:#ff0000;stroke:none;stroke-width:0.72671384;stroke-miterlimit:4;stroke-dasharray:none"
       d="m -39.589202,2489.659 c -0.05494,-0.4579 -0.0033,-1.037 0.114743,-1.2868 0.118052,-0.2499 0.290368,-0.9331 0.382928,-1.5184 0.140444,-0.8882 0.368964,-1.1512 1.381206,-1.5897 0.667104,-0.289 1.348242,-0.5256 1.513639,-0.5256 0.165397,0 0.300721,-0.1088 0.300721,-0.2419 0,-0.1331 0.476906,-0.1863 1.059791,-0.1183 0.967337,0.113 1.059791,0.2092 1.059791,1.1035 0,1.0379 -0.658669,1.8459 -1.653347,2.0282 -0.388542,0.071 -0.662811,0.4474 -0.794067,1.0892 -0.29331,1.4341 -0.804764,1.8925 -2.111511,1.8925 -1.032831,0 -1.164489,-0.088 -1.253894,-0.8327 z"
       id="path10827" />
    <path
       inkscape:connector-curvature="0"
       style="fill:#ff0000;stroke:none;stroke-width:0.72671384;stroke-miterlimit:4;stroke-dasharray:none"
       d="m -26.004583,2488.473 c -0.111025,-0.1109 -0.201864,-0.5868 -0.201864,-1.0574 0,-1.1696 1.103115,-2.3742 2.174187,-2.3742 0.785839,0 0.853787,0.091 0.853787,1.1439 0,1.5031 -0.706651,2.4896 -1.783488,2.4896 -0.462416,0 -0.931597,-0.091 -1.042622,-0.2019 z"
       id="path10825" />
    <path
       inkscape:connector-curvature="0"
       style="fill:#0000ff;fill-opacity:1;stroke:none;stroke-width:0.72671384;stroke-miterlimit:4;stroke-dasharray:none;stroke-opacity:1"
       d="m -5.8616022,2486.6311 c 0.058775,-0.7101 0.2357827,-1.1072 0.4724781,-1.0598 0.2081721,0.041 0.3784971,-0.045 0.3784971,-0.1918 0,-0.1472 0.2725177,-0.3388 0.6055951,-0.4259 0.4638679,-0.1213 0.6055943,-0.413 0.6055943,-1.2465 0,-1.0654 0.02495,-1.088 1.1967401,-1.088 l 1.1967425,0 0.090147,1.8923 c 0.085077,1.786 0.039949,1.9309 -0.8013723,2.5739 -0.6425695,0.491 -1.3029684,0.6812 -2.3649568,0.6812 l -1.473441,0 z"
       id="path10823" />
    <path
       inkscape:connector-curvature="0"
       style="fill:#ff0000;stroke:none;stroke-width:0.72671384;stroke-miterlimit:4;stroke-dasharray:none"
       d="m -21.729919,2485.6412 c -0.0794,-0.5409 0.03019,-1.0504 0.268431,-1.2483 0.221427,-0.1837 0.402597,-0.5218 0.402597,-0.7511 0,-0.2848 0.384289,-0.4172 1.21119,-0.4172 1.203053,0 1.21119,0.01 1.21119,1.1643 0,1.401 -0.71844,2.1664 -2.033358,2.1664 -0.798559,0 -0.944334,-0.1256 -1.06005,-0.9141 z"
       id="path10821" />
    <path
       inkscape:connector-curvature="0"
       style="fill:#ff0000;stroke:none;stroke-width:0.72671384;stroke-miterlimit:4;stroke-dasharray:none"
       d="m -58.605774,2481.2565 0,-1.3975 1.28689,0.093 c 1.283987,0.093 1.286889,0.096 1.286889,1.3044 0,1.2084 -0.0031,1.2113 -1.286889,1.3042 l -1.28689,0.093 z"
       id="path10819" />
    <path
       inkscape:connector-curvature="0"
       style="fill:#ff0000;stroke:none;stroke-width:0.72671384;stroke-miterlimit:4;stroke-dasharray:none"
       d="m -24.389663,2481.105 c 0,-1.2112 0,-1.2112 1.21119,-1.2112 1.21119,0 1.21119,0 1.21119,1.2112 0,1.2112 0,1.2112 -1.21119,1.2112 -1.21119,0 -1.21119,0 -1.21119,-1.2112 z"
       id="path10817" />
    <path
       inkscape:connector-curvature="0"
       style="fill:#ff0000;stroke:none;stroke-width:0.72671384;stroke-miterlimit:4;stroke-dasharray:none"
       d="m -8.3413985,2479.1688 c 0,-0.7163 0.2663159,-1.3128 0.8788442,-1.9686 0.4833636,-0.5173 0.7558813,-1.0168 0.6055943,-1.1095 -0.4859411,-0.3004 -0.2897865,-1.8412 0.3026423,-2.3774 0.3876364,-0.3508 0.9567888,-0.4898 1.7410857,-0.4253 1.0697762,0.088 1.1729622,0.1763 1.2600775,1.0797 0.052181,0.5414 -0.043211,0.9841 -0.2119892,0.9841 -0.1687791,0 -0.3477351,0.7836 -0.3976824,1.7411 -0.080445,1.5424 -0.1685734,1.7522 -0.7721013,1.8379 -0.4378336,0.062 -0.6812947,0.3056 -0.6812947,0.6813 0,0.4908 -0.2182294,0.5844 -1.3625886,0.5844 -1.3472908,0 -1.3625878,-0.011 -1.3625878,-1.0277 z"
       id="path10815" />
    <path
       inkscape:connector-curvature="0"
       style="fill:#ff0000;stroke:none;stroke-width:0.72671384;stroke-miterlimit:4;stroke-dasharray:none"
       d="m -21.058891,2478.4005 c 0,-1.1719 1.405351,-2.2182 2.799052,-2.0839 0.900084,0.087 0.976888,0.1742 0.882217,1.0035 -0.15882,1.3912 -0.852249,1.9681 -2.365611,1.9681 -1.25319,0 -1.315658,-0.042 -1.315658,-0.8877 z"
       id="path10813" />
    <path
       inkscape:connector-curvature="0"
       style="fill:#ff0000;stroke:none;stroke-width:0.72671384;stroke-miterlimit:4;stroke-dasharray:none"
       d="m -67.074473,2475.2762 c 0.01456,-1.4887 0.627422,-2.1019 1.987493,-1.9881 1.053623,0.088 1.14409,0.1689 1.14259,1.0206 -0.0031,1.6591 -0.267818,1.9516 -1.767622,1.9516 -1.348107,0 -1.37192,-0.018 -1.362461,-0.9841 z"
       id="path10811" />
    <path
       inkscape:connector-curvature="0"
       style="fill:#ff0000;stroke:none;stroke-width:0.72671384;stroke-miterlimit:4;stroke-dasharray:none"
       d="m -23.279407,2474.5444 c -0.313233,-0.3132 -0.237792,-1.8597 0.100934,-2.0691 0.166539,-0.103 0.302797,-0.4516 0.302797,-0.7749 0,-0.4698 0.212606,-0.5877 1.059792,-0.5877 0.74017,0 1.05979,0.137 1.05979,0.4542 0,0.3172 0.319622,0.4542 1.059792,0.4542 1.009322,0 1.059791,0.05 1.059791,1.0597 0,1.0319 -0.03139,1.0599 -1.19332,1.0599 -0.656325,0 -1.277532,0.1362 -1.380458,0.3027 -0.209347,0.3388 -1.755885,0.4142 -2.069118,0.101 z"
       id="path10809" />
    <path
       inkscape:connector-curvature="0"
       style="fill:#ff0000;stroke:none;stroke-width:0.72671384;stroke-miterlimit:4;stroke-dasharray:none"
       d="m -35.497068,2471.5096 c -0.111007,-0.3015 -0.38243,-0.6572 -0.603162,-0.7905 -0.221345,-0.1335 -0.40133,-0.7627 -0.40133,-1.403 0,-1.2423 0.396576,-1.521 2.177409,-1.5301 0.448153,0 0.899037,-0.1404 1.001964,-0.3069 0.102927,-0.1665 0.656005,-0.3028 1.229059,-0.3028 0.976874,0 1.041922,0.062 1.041922,0.9992 0,1.105 -0.450647,1.7259 -1.252564,1.7259 -0.37194,0 -0.553622,0.2882 -0.620734,0.9842 -0.08667,0.8988 -0.193445,0.9923 -1.23281,1.0782 -0.8763,0.073 -1.184326,-0.032 -1.339754,-0.4542 z"
       id="path10807" />
    <path
       inkscape:connector-curvature="0"
       style="fill:#ff0000;stroke:none;stroke-width:0.72671384;stroke-miterlimit:4;stroke-dasharray:none"
       d="m -52.650756,2470.6081 c -0.111025,-0.1111 -0.201864,-0.6514 -0.201864,-1.2006 0,-1.1804 0.745632,-1.7096 2.209273,-1.568 1.167215,0.1128 1.431635,1.0044 0.651188,2.1955 -0.37062,0.5657 -0.770894,0.7748 -1.482231,0.7748 -0.535977,0 -1.065342,-0.091 -1.176366,-0.2017 z"
       id="path10805" />
    <path
       inkscape:connector-curvature="0"
       style="fill:#ff0000;stroke:none;stroke-width:0.72671384;stroke-miterlimit:4;stroke-dasharray:none"
       d="m -7.793273,2469.1445 -0.1237254,-1.0598 1.301787,0 c 1.2858887,0 1.3017868,0.013 1.3017868,1.0598 0,1.0296 -0.033573,1.0598 -1.1780614,1.0598 -1.1209268,0 -1.1840665,-0.051 -1.301787,-1.0598 z"
       id="path10803" />
    <path
       inkscape:connector-curvature="0"
       style="fill:#ff0000;stroke:none;stroke-width:0.72671384;stroke-miterlimit:4;stroke-dasharray:none"
       d="m -47.791587,2469.4112 c -0.118951,-0.1189 -0.216275,-0.6704 -0.216275,-1.2256 0,-0.9236 -0.07854,-1.0093 -0.924984,-1.0093 -0.914576,0 -0.923943,-0.017 -0.832692,-1.4383 l 0.09229,-1.4382 2.195281,-0.089 2.195282,-0.089 0,1.2245 c 0,1.1531 -0.05184,1.2244 -0.890523,1.2244 -0.489785,0 -0.974733,0.1363 -1.07766,0.3028 -0.111595,0.1806 0.255277,0.3028 0.908799,0.3028 1.081261,0 1.09468,0.016 1.001963,1.1356 -0.08775,1.06 -0.165012,1.1414 -1.164592,1.2255 -0.588837,0.049 -1.167938,-0.01 -1.286889,-0.1262 z"
       id="path10801" />
    <path
       inkscape:connector-curvature="0"
       style="fill:#ff0000;stroke:none;stroke-width:0.72671384;stroke-miterlimit:4;stroke-dasharray:none"
       d="m 23.452329,2464.4511 c 0,-0.8747 0.126164,-1.2112 0.454196,-1.2112 0.249808,0 0.454196,-0.2487 0.454196,-0.5528 0,-0.8604 1.277192,-1.8695 2.366195,-1.8695 0.891995,0 0.964577,0.076 0.964577,1.0129 0,0.6283 -0.229925,1.2209 -0.605595,1.5609 -0.333077,0.3015 -0.605594,0.7722 -0.605594,1.0461 0,0.8035 -0.645805,1.2249 -1.877345,1.2249 -1.140539,0 -1.15063,-0.011 -1.15063,-1.2113 z"
       id="path10799" />
    <path
       inkscape:connector-curvature="0"
       style="fill:#ff0000;stroke:none;stroke-width:0.72671384;stroke-miterlimit:4;stroke-dasharray:none"
       d="m -12.364291,2464.2638 c -0.11895,-0.1191 -0.216275,-0.656 -0.216275,-1.1934 0,-0.589 -0.180331,-1.0461 -0.454195,-1.1511 -0.307991,-0.1182 -0.454197,-0.6009 -0.454197,-1.4994 0,-1.7156 0.702532,-2.4045 2.316977,-2.2718 1.052428,0.087 1.1739409,0.1851 1.2555846,1.0195 0.06158,0.6295 -0.1073326,1.1029 -0.5298956,1.4852 -0.782235,0.708 -0.781162,0.9605 0.0049,1.166 0.5178075,0.1354 0.6088689,0.3626 0.5298945,1.3223 -0.08941,1.0864 -0.1621225,1.1643 -1.1659735,1.2488 -0.588839,0.049 -1.167937,-0.01 -1.286886,-0.1261 z"
       id="path10797" />
    <path
       inkscape:connector-curvature="0"
       style="fill:#ff0000;stroke:none;stroke-width:0.72671384;stroke-miterlimit:4;stroke-dasharray:none"
       d="m 92.490143,2460.6662 c 0,-1.2516 0.06168,-1.3625 0.756993,-1.3625 0.646727,0 0.756994,0.1384 0.756994,0.9506 0,0.8541 -0.644196,1.7376 -1.28689,1.7648 -0.124904,0.01 -0.227097,-0.6035 -0.227097,-1.3529 z"
       id="path10795" />
    <path
       inkscape:connector-curvature="0"
       style="fill:#ff0000;stroke:none;stroke-width:0.72671384;stroke-miterlimit:4;stroke-dasharray:none"
       d="m 24.360721,2458.8494 0,-1.0946 1.28689,0.093 c 1.207318,0.087 1.286888,0.1491 1.286888,1.0014 0,0.8522 -0.07957,0.9142 -1.286888,1.0016 l -1.28689,0.093 z"
       id="path10793" />
    <path
       inkscape:connector-curvature="0"
       style="fill:#ff0000;stroke:none;stroke-width:0.72671384;stroke-miterlimit:4;stroke-dasharray:none"
       d="m -8.7561466,2458.9254 c -0.4023161,-1.5013 -0.2617477,-1.7411 1.0203398,-1.7411 1.2111902,0 1.2111902,0 1.2111902,1.2111 0,1.1744 -0.031118,1.2112 -1.0244778,1.2112 -0.8064533,0 -1.0633296,-0.145 -1.2070522,-0.6812 z"
       id="path10791" />
    <path
       inkscape:connector-curvature="0"
       style="fill:#0000ff;fill-opacity:1;stroke:none;stroke-width:0.72671384;stroke-miterlimit:4;stroke-dasharray:none;stroke-opacity:1"
       d="m -4.9895714,2453.2479 c 0.6854675,0 0.8873345,0.1377 0.8873345,0.6056 0,0.4737 0.2018636,0.6055 0.9266713,0.6055 0.8856602,0 0.9225124,0.05 0.8326931,1.1355 -0.086283,1.0426 -0.1764002,1.1435 -1.1009574,1.2321 -0.8080478,0.077 -1.0393384,-0.027 -1.1708064,-0.5298 -0.1078369,-0.4124 -0.4104601,-0.6265 -0.885505,-0.6265 -0.5390982,0 -0.7216777,-0.1666 -0.7216777,-0.6584 z"
       id="path10869" />
    <path
       inkscape:connector-curvature="0"
       style="fill:#ff0000;stroke:none;stroke-width:0.72671384;stroke-miterlimit:4;stroke-dasharray:none"
       d="m -6.221819,2454.3536 -0.7008112,0.6583 c -0.4288636,0.4029 -1.0907008,0.6584 -1.7055689,0.6584 -0.5672562,0 -1.2193988,0.2308 -1.4977039,0.5299 -0.767061,0.8245 -1.756251,1.2869 -2.753352,1.2869 -0.831883,0 -0.9125,-0.089 -0.9125,-1.0071 0,-1.0816 1.010779,-2.3238 1.890938,-2.3238 0.27691,0 0.531323,-0.2956 0.586081,-0.6812 0.07903,-0.5565 0.318681,-0.6993 1.307948,-0.7794 0.6661551,-0.053 1.4375906,-0.3026 1.7143088,-0.5525 0.7538783,-0.6812 2.1994363,-0.4171 2.3188154,0.4235 z"
       id="path10789" />
    <path
       inkscape:connector-curvature="0"
       style="fill:#ff0000;stroke:none;stroke-width:0.72671384;stroke-miterlimit:4;stroke-dasharray:none"
       d="m 106.47711,2455.8974 c 0.0927,-1.2807 0.0994,-1.2874 1.38,-1.3801 l 1.28689,-0.093 0,1.38 0,1.3801 -1.38,0 -1.38,0 z"
       id="path10787" />
    <path
       inkscape:connector-curvature="0"
       style="fill:#ff0000;stroke:none;stroke-width:0.72671384;stroke-miterlimit:4;stroke-dasharray:none"
       d="m 100.96847,2455.6969 c 0,-1.1461 0.0394,-1.1913 1.21119,-1.3892 0.74463,-0.1258 1.21118,-0.3694 1.21118,-0.6322 0,-0.5577 2.40662,-0.6057 2.45591,-0.049 0.12757,1.4407 -0.43044,2.6495 -1.22309,2.6495 -0.17843,0 -0.32441,0.1362 -0.32441,0.3028 0,0.1666 -0.74943,0.3028 -1.66539,0.3028 l -1.66539,0 z"
       id="path10785" />
    <path
       inkscape:connector-curvature="0"
       style="fill:#ff0000;stroke:none;stroke-width:0.72671384;stroke-miterlimit:4;stroke-dasharray:none"
       d="m 22.863346,2454.046 c 0.109693,-1.0597 0.281268,-2.0592 0.38127,-2.221 0.100007,-0.1618 1.618369,-0.2993 3.374143,-0.3055 l 3.192316,-0.011 0,1.0213 c 0,0.5617 -0.13626,1.0213 -0.302798,1.0213 -0.166538,0 -0.302797,0.2044 -0.302797,0.4543 0,0.3486 -0.38691,0.4541 -1.665386,0.4541 -1.278479,0 -1.665386,-0.1055 -1.665386,-0.4541 0,-0.9587 -0.56212,-0.3965 -0.756993,0.7569 -0.195799,1.159 -0.253169,1.2112 -1.329221,1.2112 l -1.124594,0 0.199446,-1.9269 z"
       id="path10783" />
    <path
       inkscape:connector-curvature="0"
       style="fill:#ff0000;stroke:none;stroke-width:0.72671384;stroke-miterlimit:4;stroke-dasharray:none"
       d="m 35.160496,2455.4684 c -0.111026,-0.1111 -0.201865,-0.7242 -0.201865,-1.3626 0,-1.0835 0.05945,-1.1608 0.893344,-1.1608 0.497085,0 1.011397,-0.2108 1.159482,-0.4755 0.188166,-0.3362 0.613962,-0.4471 1.453334,-0.3785 1.165294,0.096 1.1872,0.1193 1.1872,1.2986 0,1.125 -0.07075,1.2213 -1.110707,1.5139 -0.61089,0.1719 -1.212701,0.4147 -1.337357,0.5396 -0.280805,0.2814 -1.768928,0.2998 -2.043431,0.025 z"
       id="path10781" />
    <path
       inkscape:connector-curvature="0"
       style="fill:#ff0000;stroke:none;stroke-width:0.72671384;stroke-miterlimit:4;stroke-dasharray:none"
       d="m 2.7517814,2449.4392 c -0.1446404,-1.8818 -0.097235,-2.7542 0.1669573,-3.0724 0.2943314,-0.3547 0.2777697,-0.4957 -0.081859,-0.697 -0.4643242,-0.2598 -0.5246826,-1.2547 -0.1327155,-2.1872 0.1499695,-0.3567 0.5583761,-0.5298 1.2501297,-0.5298 l 1.0273971,0 0,-1.4968 c 0,-1.2035 0.131867,-1.5892 0.6729656,-1.9683 0.8860923,-0.6205 2.6578057,-0.632 2.6578057,-0.017 0,0.5246 0.9353437,0.6089 1.4165372,0.1277 0.1795589,-0.1796 0.7177825,-0.2818 1.1960495,-0.2271 0.784198,0.09 0.878583,0.2228 0.961258,1.3569 0.09143,1.2543 0.0884,1.2582 -1.13549,1.465 -0.674942,0.114 -1.7722028,0.1153 -2.4383571,0 -1.3381906,-0.2262 -1.3600521,-0.2039 -0.8654411,0.8817 0.2781279,0.6104 0.2500984,0.9048 -0.1433322,1.5052 -0.2689929,0.4106 -0.7322492,0.8237 -1.0294505,0.9181 -0.4366095,0.1385 -0.5195183,0.4336 -0.4317749,1.5368 0.096539,1.2138 0.039012,1.3655 -0.5179818,1.3655 -0.6509056,0 -0.6478173,0.3032 0.017315,1.7013 0.5653979,1.1884 0.2068059,1.7723 -1.1495887,1.8718 l -1.238439,0.091 -0.2019972,-2.6279 z"
       id="path10779" />
    <path
       inkscape:connector-curvature="0"
       style="fill:#ff0000;stroke:none;stroke-width:0.72671384;stroke-miterlimit:4;stroke-dasharray:none"
       d="m 110.41353,2445.7605 c -1.23061,-0.1518 -1.47827,-0.6936 -0.79415,-1.7378 0.46662,-0.7121 0.68374,-0.7863 2.06689,-0.7057 l 1.5455,0.09 0.0931,1.2869 c 0.0927,1.2817 0.0889,1.2867 -0.90839,1.2385 -0.55084,-0.027 -1.45216,-0.104 -2.00296,-0.1718 z"
       id="path10777" />
    <path
       inkscape:connector-curvature="0"
       style="fill:#ff0000;stroke:none;stroke-width:0.72671384;stroke-miterlimit:4;stroke-dasharray:none"
       d="m 76.744679,2442.9889 0,-1.2038 1.688204,-0.2109 c 1.971035,-0.2463 2.331189,-0.014 2.194519,1.4158 l -0.09775,1.0226 -1.892484,0.09 -1.892485,0.09 z"
       id="path10775" />
    <path
       inkscape:connector-curvature="0"
       style="fill:#ff0000;stroke:none;stroke-width:0.72671384;stroke-miterlimit:4;stroke-dasharray:none"
       d="m 85.626457,2438.6403 c -0.138629,-0.2261 -0.831153,-0.5803 -1.538941,-0.7868 -1.234124,-0.36 -1.286889,-0.4245 -1.286889,-1.5744 l 0,-1.199 1.665386,0 c 1.242489,0 1.665386,0.1099 1.665386,0.433 0,0.2382 0.306581,0.4767 0.681295,0.53 0.591258,0.084 0.681293,0.2769 0.681293,1.4593 0,1.2511 -0.06612,1.3703 -0.80774,1.456 -0.445682,0.051 -0.920717,-0.091 -1.05979,-0.3181 z"
       id="path10773" />
    <path
       inkscape:connector-curvature="0"
       style="fill:#ff0000;stroke:none;stroke-width:0.72671384;stroke-miterlimit:4;stroke-dasharray:none"
       d="m 20.020627,2436.695 c -0.729442,-0.7294 0.470842,-3.7345 1.491635,-3.7345 0.242589,0 0.573867,-0.3493 0.736178,-0.7762 0.246,-0.6471 0.4589,-0.7605 1.279396,-0.6814 0.959898,0.093 0.986554,0.1344 1.075809,1.6846 0.06603,1.1471 -0.01829,1.5926 -0.302798,1.5998 -0.601741,0.016 -1.756908,1.0859 -1.756908,1.6281 0,0.3563 -0.301724,0.4815 -1.160724,0.4815 -0.6384,0 -1.251564,-0.091 -1.362588,-0.2019 z"
       id="path10771" />
    <path
       inkscape:connector-curvature="0"
       style="fill:#ff0000;stroke:none;stroke-width:0.72671384;stroke-miterlimit:4;stroke-dasharray:none"
       d="m 42.755667,2436.0433 c -1.350343,-0.4361 -1.438287,-0.5287 -1.438287,-1.5154 l 0,-1.0507 2.316666,0.1958 c 1.274165,0.1077 2.841141,0.1958 3.482171,0.1958 1.130139,0 1.165503,0.033 1.165503,1.0598 0,1.0059 -0.05302,1.0599 -1.041921,1.0599 -0.573055,0 -1.126133,0.1362 -1.229059,0.3027 -0.253084,0.4096 -1.517311,0.3133 -3.255073,-0.2479 z"
       id="path10769" />
    <path
       inkscape:connector-curvature="0"
       style="fill:#ff0000;stroke:none;stroke-width:0.72671384;stroke-miterlimit:4;stroke-dasharray:none"
       d="m 54.236736,2435.1809 c -0.339606,-0.3395 -0.206097,-1.7353 0.219644,-2.2961 0.253487,-0.334 0.809831,-0.5299 1.504356,-0.5299 1.021765,0 1.102108,0.066 1.102108,0.9049 0,0.4977 -0.234673,1.179 -0.52149,1.5139 -0.5003,0.5844 -1.883175,0.8287 -2.304618,0.4072 z"
       id="path10767" />
    <path
       inkscape:connector-curvature="0"
       style="fill:#ff0000;stroke:none;stroke-width:0.72671384;stroke-miterlimit:4;stroke-dasharray:none"
       d="m 13.66188,2432.7586 c -0.40923,-0.4092 -0.210747,-1.9178 0.252332,-1.9178 0.249808,0 0.454196,-0.1362 0.454196,-0.3028 0,-0.1665 0.461441,-0.3027 1.025423,-0.3027 0.903811,0 1.040959,0.1059 1.156416,0.8925 0.195668,1.3332 -0.224278,1.8327 -1.540824,1.8327 -0.630123,0 -1.236518,-0.091 -1.347543,-0.2019 z"
       id="path10765" />
    <path
       inkscape:connector-curvature="0"
       style="fill:#ff0000;stroke:none;stroke-width:0.72671384;stroke-miterlimit:4;stroke-dasharray:none"
       d="m 149.7747,2425.493 c 0.0906,-1.1024 0.14887,-1.1622 1.13013,-1.1622 0.56899,0 1.07675,0.1361 1.12831,0.3027 0.14421,0.4658 -0.86905,1.5762 -1.65285,1.8113 -0.65754,0.1972 -0.69523,0.138 -0.60559,-0.9518 z"
       id="path10763" />
    <path
       inkscape:connector-curvature="0"
       style="fill:#ff0000;stroke:none;stroke-width:0.72671384;stroke-miterlimit:4;stroke-dasharray:none"
       d="m 31.526928,2425.493 c -0.923467,-0.9235 0.86832,-2.9523 2.446986,-2.7707 0.688501,0.079 0.849432,0.2618 0.926032,1.051 0.06949,0.7157 -0.08016,1.076 -0.597266,1.4382 -0.693043,0.4854 -2.398808,0.6584 -2.775752,0.2815 z"
       id="path10761" />
    <path
       inkscape:connector-curvature="0"
       style="fill:#ff0000;stroke:none;stroke-width:0.72671384;stroke-miterlimit:4;stroke-dasharray:none"
       d="m 59.182427,2424.3505 c 0,-1.0587 0.02214,-1.078 1.230376,-1.078 1.205711,0 1.228473,0.02 1.135489,0.984 -0.08662,0.8985 -0.193724,0.9923 -1.230374,1.0781 -1.117102,0.093 -1.135491,0.076 -1.135491,-0.9841 z"
       id="path10759" />
    <path
       inkscape:connector-curvature="0"
       style="fill:#ff0000;stroke:none;stroke-width:0.72671384;stroke-miterlimit:4;stroke-dasharray:none"
       d="m 18.518259,2423.6878 c -0.117417,-0.1175 -0.213485,-0.596 -0.213485,-1.0637 0,-0.9919 1.200677,-1.774 2.723354,-1.774 1.226583,0 2.514464,1.1672 2.375145,2.1526 -0.09629,0.6812 -0.237473,0.7291 -2.386935,0.8113 -1.256529,0.047 -2.380664,-0.01 -2.498079,-0.1262 z"
       id="path10757" />
    <path
       inkscape:connector-curvature="0"
       style="fill:#ff0000;stroke:none;stroke-width:0.72671384;stroke-miterlimit:4;stroke-dasharray:none"
       d="m 43.03323,2422.7679 c -0.111025,-0.1111 -0.201863,-0.6514 -0.201863,-1.2006 0,-1.2648 0.674271,-1.6522 3.2326,-1.8575 l 1.914955,-0.1538 0,1.0875 c 0,1.0078 -0.07949,1.1024 -1.083965,1.2909 -0.596183,0.1118 -1.155795,0.3905 -1.243588,0.6193 -0.163675,0.4265 -2.236226,0.596 -2.618139,0.2142 z"
       id="path10755" />
    <path
       inkscape:connector-curvature="0"
       style="fill:#ff0000;stroke:none;stroke-width:0.72671384;stroke-miterlimit:4;stroke-dasharray:none"
       d="m 79.639078,2420.6891 c -0.323272,-0.2446 -0.834243,-0.4447 -1.13549,-0.4447 -0.447286,0 -0.54772,-0.2497 -0.54772,-1.3626 l 0,-1.3625 1.513988,0 c 0.832692,0 1.513763,0.1022 1.513495,0.2271 -2.42e-4,0.1249 0.646959,0.2271 1.438287,0.2271 l 1.43878,0 0.09311,1.2868 c 0.08072,1.1158 0.01263,1.287 -0.512028,1.287 -0.332823,0 -0.689344,0.1362 -0.792271,0.3028 -0.281587,0.4556 -2.34049,0.3455 -3.01015,-0.161 z"
       id="path10753" />
    <path
       inkscape:connector-curvature="0"
       style="fill:#ff0000;stroke:none;stroke-width:0.72671384;stroke-miterlimit:4;stroke-dasharray:none"
       d="m 34.506061,2419.3434 c -0.229291,-1.0439 0.03216,-1.6312 0.624903,-1.4037 0.227628,0.088 0.494405,0.029 0.592833,-0.1307 0.09843,-0.1594 0.647835,-0.2897 1.220889,-0.2897 1.033003,0 1.041922,0.011 1.041922,1.3625 l 0,1.3626 -1.641329,0 c -1.574504,0 -1.649384,-0.037 -1.839221,-0.901 z"
       id="path10751" />
    <path
       inkscape:connector-curvature="0"
       style="fill:#ff0000;stroke:none;stroke-width:0.72671384;stroke-miterlimit:4;stroke-dasharray:none"
       d="m 97.7891,2419.6389 c -0.102927,-0.1665 -0.508392,-0.3028 -0.901028,-0.3028 -0.392641,0 -0.768549,-0.1639 -0.835351,-0.3643 -0.06813,-0.2045 -0.611008,-0.3506 -1.23642,-0.3328 l -1.114967,0.032 0,-1.3505 c 0,-1.0042 0.09706,-1.29 0.378497,-1.1149 0.208173,0.1296 1.161985,0.1973 2.119582,0.1506 1.412744,-0.069 1.741086,0 1.741086,0.3879 0,0.26 0.136258,0.4729 0.302797,0.4729 0.166539,0 0.302798,-0.2045 0.302798,-0.4542 0,-0.2499 0.204388,-0.4542 0.454195,-0.4542 0.296771,0 0.454197,-0.2972 0.454197,-0.8572 0,-1.1078 0.961204,-1.6369 2.743074,-1.5098 1.27315,0.091 1.34974,0.1485 1.43973,1.0821 0.10194,1.0577 0.0257,1.117 -1.83612,1.4263 -1.05574,0.1755 -1.13549,0.262 -1.13549,1.2314 0,0.5735 -0.23468,1.3167 -0.52149,1.6517 -0.544459,0.6358 -2.031836,0.8293 -2.35509,0.3062 z"
       id="path10749" />
    <path
       inkscape:connector-curvature="0"
       style="fill:#ff0000;stroke:none;stroke-width:0.72671384;stroke-miterlimit:4;stroke-dasharray:none"
       d="m 74.322299,2417.6708 c 0,-1.3477 0.01126,-1.3626 1.029301,-1.3626 1.001991,0 1.032176,0.037 1.13767,1.3626 l 0.108373,1.3626 -1.137671,0 -1.137673,0 z"
       id="path10747" />
    <path
       inkscape:connector-curvature="0"
       style="fill:#ff0000;stroke:none;stroke-width:0.72671384;stroke-miterlimit:4;stroke-dasharray:none"
       d="m 149.30252,2417.7843 c -0.10408,-0.5205 -0.18925,-1.338 -0.18925,-1.8168 0,-0.7615 0.11152,-0.8705 0.89053,-0.8705 0.48978,0 0.97472,0.1362 1.07764,0.3027 0.10294,0.1666 0.5368,0.3028 0.96413,0.3028 0.70872,0 0.76034,0.083 0.58772,0.9463 -0.10409,0.5204 -0.18925,1.0655 -0.18925,1.2111 0,0.1458 -0.20438,0.265 -0.4542,0.265 -0.2498,0 -0.45419,0.1363 -0.45419,0.3028 0,0.1666 -0.45987,0.3028 -1.02193,0.3028 -0.90234,0 -1.0441,-0.1107 -1.2112,-0.9462 z"
       id="path10745" />
    <path
       inkscape:connector-curvature="0"
       style="fill:#ff0000;stroke:none;stroke-width:0.72671384;stroke-miterlimit:4;stroke-dasharray:none"
       d="m 60.898279,2417.6202 c -0.111025,-0.111 -0.201864,-0.5879 -0.201864,-1.0597 0,-0.7991 0.08312,-0.858 1.21119,-0.858 1.182351,0 1.211189,0.026 1.211189,1.0599 0,0.9992 -0.05768,1.0597 -1.009326,1.0597 -0.555129,0 -1.100164,-0.091 -1.211189,-0.2019 z"
       id="path10743" />
    <path
       inkscape:connector-curvature="0"
       style="fill:#ff0000;stroke:none;stroke-width:0.72671384;stroke-miterlimit:4;stroke-dasharray:none"
       d="m 91.085656,2417.0651 c -0.09586,-0.2498 -0.489216,-0.4542 -0.874122,-0.4542 -1.368189,0 -1.657756,-0.2965 -1.657756,-1.6977 0,-1.1877 0.07492,-1.3303 0.699118,-1.3303 0.384517,0 0.963618,0.2001 1.286889,0.4446 0.323274,0.2446 0.842114,0.4489 1.15298,0.4543 0.43697,0.01 0.523787,0.1641 0.382634,0.6908 -0.100419,0.3748 -0.184442,1.0561 -0.186716,1.514 -0.0044,0.8902 -0.514451,1.1306 -0.803027,0.3785 z"
       id="path10741" />
    <path
       inkscape:connector-curvature="0"
       style="fill:#ff0000;stroke:none;stroke-width:0.72671384;stroke-miterlimit:4;stroke-dasharray:none"
       d="m 45.008366,2415.1726 c 0.09352,-1.1299 0.100595,-1.1355 1.45657,-1.1355 1.355975,0 1.363044,0.01 1.456567,1.1355 l 0.09398,1.1356 -1.550544,0 -1.550546,0 z"
       id="path10739" />
    <path
       inkscape:connector-curvature="0"
       style="fill:#ff0000;stroke:none;stroke-width:0.72671384;stroke-miterlimit:4;stroke-dasharray:none"
       d="m 65.598591,2412.7503 c 0.07743,-0.9357 0.211084,-1.1371 0.759135,-1.1447 0.365835,-0.01 0.763256,-0.1071 0.883161,-0.227 0.1199,-0.12 0.672199,-0.218 1.227327,-0.218 0.949699,0 1.009326,0.061 1.009326,1.0491 0,1.2796 -0.608445,1.676 -2.57215,1.676 l -1.400775,0 z"
       id="path10737" />
    <path
       inkscape:connector-curvature="0"
       style="fill:#ff0000;stroke:none;stroke-width:0.72671384;stroke-miterlimit:4;stroke-dasharray:none"
       d="m 30.550244,2412.23 c -0.323274,-0.2445 -0.894352,-0.449 -1.269062,-0.4543 -0.570774,-0.01 -0.681295,-0.1762 -0.681295,-1.037 0,-0.6575 0.172431,-1.0935 0.47896,-1.2111 0.728686,-0.2797 2.549015,-0.2193 2.549015,0.084 0,0.1476 0.476905,0.4946 1.059791,0.7713 0.858406,0.4072 1.059791,0.6728 1.059791,1.3971 0,0.852 -0.06151,0.894 -1.304716,0.894 -0.717593,0 -1.569212,-0.2 -1.892484,-0.4445 z"
       id="path10735" />
    <path
       inkscape:connector-curvature="0"
       style="fill:#ff0000;stroke:none;stroke-width:0.72671384;stroke-miterlimit:4;stroke-dasharray:none"
       d="m 60.270875,2409.0006 c -0.110077,-0.6884 -0.134222,-1.3176 -0.05365,-1.3981 0.08056,-0.081 0.766375,-0.2164 1.524028,-0.3019 l 1.377546,-0.1552 0,0.9677 c 0,1.5132 -0.479081,2.139 -1.637341,2.139 -0.950135,0 -1.02238,-0.075 -1.210578,-1.2515 z"
       id="path10733" />
    <path
       inkscape:connector-curvature="0"
       style="fill:#ff0000;stroke:none;stroke-width:0.72671384;stroke-miterlimit:4;stroke-dasharray:none"
       d="m 86.736994,2408.7382 c 0,-1.1824 0.02522,-1.2112 1.059791,-1.2112 1.034557,0 1.059791,0.029 1.059791,1.2112 0,1.1823 -0.02522,1.2111 -1.059791,1.2111 -1.03456,0 -1.059791,-0.029 -1.059791,-1.2111 z"
       id="path10731" />
    <path
       inkscape:connector-curvature="0"
       style="fill:#ff0000;stroke:none;stroke-width:0.72671384;stroke-miterlimit:4;stroke-dasharray:none"
       d="m 136.62144,2407.3692 c -1.23372,-1.1991 -1.43686,-1.5649 -1.43686,-2.5876 0,-1.1514 0.034,-1.191 1.02447,-1.191 0.76984,0 1.06384,0.1506 1.18285,0.6056 0.0871,0.3331 0.37552,0.6056 0.64092,0.6056 0.26539,0 0.48253,0.2043 0.48253,0.4542 0,0.2497 0.2101,0.4543 0.46687,0.4543 0.84478,0 1.70642,1.0835 1.60018,2.0122 -0.0884,0.772 -0.22822,0.8738 -1.31148,0.9538 -1.08531,0.08 -1.36354,-0.057 -2.64948,-1.3071 z"
       id="path10729" />
    <path
       inkscape:connector-curvature="0"
       style="fill:#ff0000;stroke:none;stroke-width:0.72671384;stroke-miterlimit:4;stroke-dasharray:none"
       d="m 156.98599,2408.1351 c 0,-0.3316 -0.27252,-0.7732 -0.60559,-0.9813 -0.40437,-0.2525 -0.6056,-0.706 -0.6056,-1.365 0,-0.9137 0.0731,-0.9863 0.9841,-0.9773 1.47479,0.015 2.03828,0.6105 2.2476,2.3778 l 0.18345,1.5489 -1.10196,0 c -0.89856,0 -1.102,-0.1114 -1.102,-0.6031 z"
       id="path10727" />
    <path
       inkscape:connector-curvature="0"
       style="fill:#ff0000;stroke:none;stroke-width:0.72671384;stroke-miterlimit:4;stroke-dasharray:none"
       d="m 71.684857,2407.8298 c -0.119363,-0.4564 -0.413021,-0.6057 -1.192346,-0.6057 -0.707132,0 -1.096831,-0.1674 -1.232808,-0.5298 -0.109359,-0.2914 -0.389289,-0.6729 -0.622069,-0.8477 -0.245269,-0.1841 -0.380484,-0.6934 -0.321562,-1.2112 0.08716,-0.7658 0.245424,-0.9072 1.108653,-0.99 0.808048,-0.077 1.039341,0.027 1.170807,0.5299 0.107841,0.4124 0.410459,0.6265 0.885506,0.6265 0.42805,0 0.721679,0.1784 0.721679,0.4384 0,0.3153 0.446144,0.4641 1.589686,0.5299 1.421507,0.082 1.60066,0.1693 1.693425,0.8261 0.140119,0.9921 -0.984873,1.8238 -2.478767,1.8324 -0.912395,0.01 -1.198051,-0.124 -1.322204,-0.5988 z"
       id="path10725" />
    <path
       inkscape:connector-curvature="0"
       style="fill:#ff0000;stroke:none;stroke-width:0.72671384;stroke-miterlimit:4;stroke-dasharray:none"
       d="m 151.09927,2403.1267 c -0.32326,-0.2444 -0.89896,-0.4444 -1.2793,-0.4444 -0.61323,0 -0.67231,-0.1115 -0.52152,-0.9841 0.27063,-1.5665 0.36796,-1.7412 0.96999,-1.7412 0.3127,0 1.02816,0.2293 1.58986,0.5096 0.5617,0.2801 1.53521,0.4791 2.16338,0.442 1.67505,-0.099 2.35872,0.3745 2.35872,1.6328 l 0,1.0492 -2.34668,-0.01 c -1.58181,-0.01 -2.53824,-0.1545 -2.93445,-0.4542 z"
       id="path10723" />
    <path
       inkscape:connector-curvature="0"
       style="fill:#ff0000;stroke:none;stroke-width:0.72671384;stroke-miterlimit:4;stroke-dasharray:none"
       d="m 60.696413,2402.137 c 0,-0.4664 0.170322,-1.2101 0.378496,-1.6525 0.314146,-0.6679 0.642204,-0.8377 1.929603,-0.999 1.926081,-0.2411 2.839456,0.3705 2.839456,1.9014 0,0.9211 -0.07202,0.9925 -0.999231,0.9925 -0.549577,0 -1.162742,-0.1635 -1.362589,-0.3633 -0.282611,-0.2827 -0.363357,-0.2153 -0.363357,0.3027 0,0.5754 -0.165162,0.6663 -1.211189,0.6663 -1.124742,0 -1.211189,-0.061 -1.211189,-0.8481 z"
       id="path10721" />
    <path
       inkscape:connector-curvature="0"
       style="fill:#ff0000;stroke:none;stroke-width:0.72671384;stroke-miterlimit:4;stroke-dasharray:none"
       d="m 48.180785,2400.6635 c -0.111025,-0.1109 -0.201865,-0.5844 -0.201865,-1.052 0,-0.6383 0.226301,-0.967 0.908393,-1.3199 0.744881,-0.3851 0.908392,-0.6591 0.908392,-1.5217 0,-0.9203 0.09479,-1.0519 0.756994,-1.0519 0.555126,0 0.756993,-0.1616 0.756993,-0.6057 0,-0.3331 0.108898,-0.6056 0.241996,-0.6056 0.133097,0 0.189496,-0.4497 0.125329,-0.9993 -0.09821,-0.8412 0.0095,-1.0568 0.680647,-1.3626 0.438516,-0.1998 1.131542,-0.3632 1.540052,-0.3632 0.675498,0 0.742748,0.1201 0.742748,1.3271 0,1.0378 -0.122461,1.3594 -0.561288,1.4742 -0.411586,0.1076 -0.61371,0.5419 -0.757831,1.6284 -0.133604,1.0071 -0.390196,1.6024 -0.801298,1.8592 -0.385544,0.2408 -0.60476,0.706 -0.60476,1.2835 0,0.7585 -0.120206,0.9059 -0.739123,0.9059 -0.406517,0 -0.823336,0.1362 -0.926263,0.3027 -0.209346,0.3387 -1.755883,0.4143 -2.069116,0.1009 z"
       id="path10719" />
    <path
       inkscape:connector-curvature="0"
       style="fill:#ff0000;stroke:none;stroke-width:0.72671384;stroke-miterlimit:4;stroke-dasharray:none"
       d="m 87.460534,2399.222 c -0.09121,-0.2377 -0.121,-0.7486 -0.06619,-1.1354 0.08603,-0.6073 0.296129,-0.716 1.537934,-0.7956 l 1.438287,-0.092 0,1.2278 0,1.2277 -1.372092,0 c -0.909238,0 -1.428038,-0.1458 -1.537935,-0.4322 z"
       id="path10717" />
    <path
       inkscape:connector-curvature="0"
       style="fill:#ff0000;stroke:none;stroke-width:0.72671384;stroke-miterlimit:4;stroke-dasharray:none"
       d="m 66.449564,2397.9889 0,-1.0599 1.513987,0 1.513987,0 0,1.0599 0,1.0598 -1.513987,0 -1.513987,0 z"
       id="path10715" />
    <path
       inkscape:connector-curvature="0"
       style="fill:#ff0000;stroke:none;stroke-width:0.72671384;stroke-miterlimit:4;stroke-dasharray:none"
       d="m 135.914,2393.8565 c -0.0735,-0.119 0.005,-0.3019 0.17402,-0.4065 0.16927,-0.1046 0.30775,-0.5128 0.30775,-0.9071 0,-0.4362 0.20314,-0.7561 0.51887,-0.8169 0.34889,-0.067 0.52248,-0.3968 0.5299,-1.0063 0.0131,-1.0789 0.8557,-1.3356 2.30172,-0.7013 0.76249,0.3344 0.89856,0.5503 0.82515,1.3089 -0.0755,0.7815 -0.22535,0.9217 -1.07197,1.0033 -0.80176,0.077 -0.98409,0.2257 -0.98409,0.8009 0,0.6047 -0.17701,0.7229 -1.23382,0.8237 -0.6786,0.065 -1.294,0.02 -1.36753,-0.099 z"
       id="path10713" />
    <path
       inkscape:connector-curvature="0"
       style="fill:#ff0000;stroke:none;stroke-width:0.72671384;stroke-miterlimit:4;stroke-dasharray:none"
       d="m 108.9926,2392.12 c -0.68416,-0.1473 -0.91034,-0.3667 -0.91631,-0.8886 -0.004,-0.3811 -0.15891,-0.7879 -0.34347,-0.904 -0.18455,-0.1162 -0.38649,-0.4838 -0.44875,-0.8168 -0.0807,-0.4315 -0.39545,-0.6329 -1.09483,-0.7005 -0.89812,-0.087 -0.9816,-0.1834 -0.9816,-1.1356 l 0,-1.0406 1.93977,0 1.93976,0 0.20823,1.5141 c 0.17602,1.2798 0.30921,1.5154 0.86111,1.5236 1.03071,0.016 1.71267,0.718 1.71267,1.7648 0,0.8781 -0.0752,0.948 -0.98409,0.9149 -0.54125,-0.02 -1.39286,-0.1238 -1.89249,-0.2313 z"
       id="path10711" />
    <path
       inkscape:connector-curvature="0"
       style="fill:#ff0000;stroke:none;stroke-width:0.72671384;stroke-miterlimit:4;stroke-dasharray:none"
       d="m 120.04471,2378.1556 0,-1.2443 1.43828,0.093 c 1.42432,0.092 1.43829,0.1026 1.43829,1.152 0,1.0495 -0.0139,1.0608 -1.43829,1.1521 l -1.43828,0.092 z"
       id="path5158-3" />
    <path
       style="fill:#000000;fill-rule:evenodd;stroke:#000000;stroke-width:3.9662919;stroke-linecap:butt;stroke-linejoin:miter;stroke-miterlimit:4;stroke-dasharray:none;stroke-opacity:1;marker-end:url(#Arrow2Send-6)"
       d="m 91.034737,2577.264 0.256439,-36.4623"
       id="path4147-5"
       inkscape:connector-curvature="0"
       sodipodi:nodetypes="cc" />
  </g>
</svg>
